<svg width="23" height="22" viewBox="0 0 23 22" fill="none" xmlns="http://www.w3.org/2000/svg">
<g clip-path="url(#clip0)">
<path d="M22.686 11.2057C22.686 10.3044 22.6102 9.64668 22.4461 8.9646H11.7782V13.0328H18.04C17.9138 14.0437 17.2321 15.5663 15.7171 16.5894L15.6959 16.7256L19.0689 19.2466L19.3025 19.2691C21.4487 17.3568 22.686 14.5431 22.686 11.2057Z" fill="#4285F4"/>
<path d="M11.7783 21.9246C14.8461 21.9246 17.4215 20.9501 19.3027 19.2693L15.7172 16.5895C14.7577 17.2351 13.47 17.6857 11.7783 17.6857C8.77361 17.6857 6.22342 15.7735 5.31435 13.1304L5.1811 13.1413L1.6738 15.7601L1.62793 15.8831C3.49638 19.4641 7.33432 21.9246 11.7783 21.9246Z" fill="#34A853"/>
<path d="M5.31424 13.1303C5.07438 12.4482 4.93556 11.7174 4.93556 10.9622C4.93556 10.207 5.07438 9.47621 5.30162 8.79413L5.29527 8.64886L1.74403 5.98804L1.62784 6.04136C0.857764 7.52737 0.415894 9.19609 0.415894 10.9622C0.415894 12.7284 0.857764 14.397 1.62784 15.883L5.31424 13.1303Z" fill="#FBBC05"/>
<path d="M11.7782 4.23869C13.9118 4.23869 15.351 5.12784 16.1716 5.87088L19.3783 2.85017C17.4089 1.08404 14.846 0 11.7782 0C7.3343 0 3.49637 2.46038 1.62793 6.04134L5.30171 8.7941C6.2234 6.151 8.77358 4.23869 11.7782 4.23869Z" fill="#EB4335"/>
</g>
<defs>
<clipPath id="clip0">
<rect width="22.283" height="22" fill="white" transform="translate(0.414795)"/>
</clipPath>
</defs>
</svg>
