<svg width="218" height="218" viewBox="0 0 218 218" fill="none" xmlns="http://www.w3.org/2000/svg">
<g opacity="0.8">
<path opacity="0.1" d="M119.458 203.697C126.426 203.524 133.254 201.706 139.385 198.391C177.461 178.019 204.897 128.751 185.731 86.9465C176.863 67.624 159.117 47.2731 136.496 45.9066C118.148 44.7999 100.349 53.9096 84.8233 62.6314C75.0624 68.1293 65.6075 74.7552 55.2381 79.0609C41.7729 84.6655 25.3683 93.181 25.0124 109.888C24.5178 132.662 38.8691 152.793 53.0959 169.247C68.529 187.1 89.2999 202.06 113.558 203.593C115.519 203.718 117.49 203.753 119.458 203.697Z" fill="#008F84"/>
<path d="M10.9656 202.74H208.038" stroke="black" stroke-opacity="0.24" stroke-linecap="round" stroke-linejoin="round"/>
<g opacity="0.5">
<path d="M12.5656 168.252C13.7297 168.758 16.5724 168.688 16.5768 168.688C16.5812 168.688 15.962 166.827 15.9097 166.718C15.2862 165.41 13.2937 163.256 11.7067 163.474C11.4412 163.517 11.1879 163.616 10.9633 163.764C10.7386 163.912 10.5477 164.106 10.4029 164.332C10.258 164.559 10.1626 164.814 10.1229 165.08C10.0831 165.346 10.0998 165.617 10.172 165.876C10.4379 166.988 11.5759 167.816 12.5656 168.252Z" fill="#008F84"/>
<path d="M13.5468 176.484C14.7545 176.663 17.292 175.926 17.4708 175.865C17.8893 177.317 18.4035 178.74 19.0099 180.125C19.3587 180.931 19.738 181.733 20.126 182.536C19.8906 182.196 19.69 181.895 19.6508 181.855C18.7047 180.761 16.2326 179.205 14.7414 179.837C14.4966 179.949 14.2782 180.111 14.1002 180.313C13.9223 180.515 13.7889 180.753 13.7087 181.01C13.6285 181.267 13.6033 181.538 13.6348 181.805C13.6662 182.073 13.7536 182.33 13.8912 182.562C14.4406 183.565 15.7617 184.057 16.8299 184.214C17.8981 184.371 20.0912 183.778 20.6623 183.626C20.8149 183.931 20.9632 184.24 21.0983 184.546C21.8352 186.006 22.572 187.462 23.2783 188.906C23.5181 189.416 23.7143 189.93 23.9541 190.44C23.7492 190.139 23.5748 189.891 23.5443 189.852C22.5982 188.757 20.126 187.201 18.6349 187.833C18.3883 187.943 18.1676 188.104 17.9874 188.305C17.8072 188.506 17.6715 188.743 17.5892 189C17.5069 189.258 17.4798 189.529 17.5097 189.798C17.5397 190.066 17.6259 190.325 17.7629 190.558C18.3123 191.561 19.6334 192.058 20.7016 192.21C21.7698 192.363 23.7536 191.84 24.4337 191.652C24.643 192.184 24.8697 192.716 25.031 193.239C25.1444 193.597 25.2796 193.937 25.3755 194.308L25.6763 195.385C25.842 196.078 26.0164 196.788 26.1646 197.469C26.2693 197.94 26.3565 198.393 26.4524 198.846C26.217 198.336 25.7374 197.342 25.6894 197.264C24.922 196.039 22.7115 194.125 21.1419 194.526C20.8833 194.6 20.643 194.727 20.4368 194.9C20.2307 195.073 20.0631 195.287 19.9451 195.529C19.8271 195.77 19.7613 196.034 19.7519 196.303C19.7425 196.572 19.7898 196.84 19.8906 197.089C20.283 198.162 21.5125 198.833 22.5458 199.169C23.6838 199.513 26.1995 199.2 26.5134 199.169C26.666 199.923 26.8056 200.656 26.9494 201.349C27.041 201.864 27.1238 202.356 27.198 202.831H28.2051C28.1092 202.304 28.0089 201.75 27.8912 201.175C27.743 200.407 27.5642 199.596 27.3767 198.759C28.1353 198.457 28.8749 198.109 29.5916 197.717C30.42 198.615 32.5477 199.666 32.8224 199.801C32.5302 200.512 32.2425 201.201 31.9504 201.846L31.5144 202.831H32.5826C32.6654 202.627 32.7526 202.43 32.8354 202.221C33.1319 201.497 33.4371 200.721 33.738 199.923C34.0432 199.984 36.5371 200.494 37.7012 200.229C38.752 199.993 40.0294 199.396 40.5003 198.354C40.6196 198.113 40.6866 197.849 40.6972 197.58C40.7077 197.312 40.6615 197.044 40.5616 196.794C40.4616 196.544 40.3101 196.318 40.117 196.131C39.9239 195.944 39.6935 195.799 39.4408 195.707C37.9061 195.188 35.5648 196.932 34.7059 198.096C34.6536 198.166 34.187 198.968 33.9036 199.487C34.0257 199.156 34.1478 198.842 34.2699 198.502C34.514 197.835 34.7364 197.159 34.9806 196.435C35.0896 196.082 35.1942 195.725 35.3032 195.367C35.4122 195.01 35.495 194.617 35.591 194.242C35.8002 193.37 35.9703 192.468 36.1185 191.561C36.7071 191.77 38.7956 192.498 39.8768 192.433C40.9581 192.367 42.3054 191.962 42.9288 191.003C43.0837 190.782 43.1904 190.532 43.242 190.268C43.2937 190.004 43.2891 189.731 43.2287 189.469C43.1682 189.207 43.0532 188.96 42.8911 188.745C42.7291 188.53 42.5235 188.351 42.2879 188.221C40.8448 187.48 38.268 188.849 37.239 189.869C37.178 189.935 36.524 190.741 36.1752 191.203C36.258 190.654 36.3496 190.109 36.415 189.551C36.6156 187.946 36.7682 186.316 36.9251 184.689C36.9731 184.188 37.0298 183.691 37.0821 183.198C37.287 183.272 39.7548 184.192 40.9668 184.105C42.0438 184.031 43.3954 183.634 44.0188 182.675C44.1729 182.455 44.279 182.205 44.3303 181.941C44.3815 181.677 44.3768 181.406 44.3163 181.144C44.2559 180.882 44.1412 180.636 43.9795 180.421C43.8178 180.207 43.6129 180.028 43.3779 179.898C41.9348 179.157 39.3536 180.526 38.329 181.546C38.2549 181.62 37.3132 182.797 37.0908 183.107C37.2085 182.012 37.3306 180.927 37.5006 179.854C37.7167 178.409 38.0284 176.981 38.4337 175.577C38.5296 175.612 41.0976 176.58 42.3577 176.493C43.4346 176.419 44.7862 176.022 45.4097 175.067C45.5643 174.846 45.6708 174.596 45.7221 174.331C45.7735 174.067 45.7685 173.795 45.7077 173.532C45.6468 173.27 45.5313 173.023 45.3688 172.808C45.2063 172.593 45.0004 172.415 44.7644 172.285C43.3256 171.544 40.7445 172.913 39.7199 173.933C39.6414 174.012 38.6299 175.276 38.4642 175.516C38.4904 175.438 38.5034 175.35 38.5296 175.268C38.9741 173.871 39.5417 172.517 40.2256 171.221C40.5919 170.502 40.9843 169.831 41.381 169.19C41.8432 169.421 43.9534 170.445 45.0827 170.498C46.2119 170.55 47.5461 170.293 48.2742 169.412C48.4574 169.211 48.5957 168.973 48.68 168.714C48.7642 168.455 48.7924 168.182 48.7627 167.911C48.733 167.641 48.6461 167.38 48.5078 167.145C48.3694 166.911 48.1828 166.709 47.9603 166.552C46.6087 165.654 43.8968 166.731 42.7632 167.633C42.7021 167.681 42.131 168.248 41.7211 168.671C41.9086 168.383 42.0917 168.082 42.2705 167.799C42.9506 166.779 43.6308 165.885 44.2456 165.1C44.5944 164.664 44.9214 164.263 45.2309 163.897C45.7977 163.897 48.0911 163.814 49.0939 163.347C50.0967 162.881 51.191 162.039 51.4265 160.91C51.4907 160.649 51.4992 160.377 51.4516 160.112C51.4039 159.847 51.301 159.596 51.1497 159.373C50.9984 159.151 50.802 158.963 50.5733 158.821C50.3445 158.679 50.0886 158.588 49.822 158.551C48.2132 158.377 46.2991 160.583 45.7105 161.904C45.6626 162.022 45.0696 163.897 45.1001 163.897H45.135C44.8298 164.241 44.5072 164.616 44.1627 165.035C43.5305 165.806 42.8286 166.687 42.1266 167.699C41.3567 168.777 40.6506 169.899 40.012 171.06C39.2937 172.36 38.6897 173.719 38.207 175.124V175.176C38.207 174.701 38.207 173.375 38.1808 173.271C37.9977 171.836 36.7943 169.177 35.1986 168.88C34.9326 168.839 34.6609 168.854 34.4011 168.925C34.1414 168.995 33.8994 169.12 33.6909 169.29C33.4824 169.46 33.3121 169.672 33.191 169.913C33.0699 170.153 33.0008 170.416 32.988 170.685C32.8965 171.823 33.7205 172.965 34.5271 173.685C35.4384 174.496 37.9584 175.281 38.159 175.342C37.6956 176.789 37.3286 178.266 37.0603 179.763C36.9033 180.635 36.7769 181.507 36.6592 182.379C36.6592 181.969 36.6592 181.598 36.6592 181.55C36.4717 180.116 35.2727 177.452 33.6769 177.16C33.4112 177.118 33.1396 177.132 32.8799 177.202C32.6201 177.272 32.3781 177.396 32.1695 177.566C31.9609 177.736 31.7905 177.948 31.6693 178.188C31.5482 178.429 31.479 178.692 31.4664 178.96C31.3748 180.098 32.1989 181.241 33.0055 181.96C33.8121 182.68 35.9616 183.403 36.5284 183.586C36.4848 183.922 36.4412 184.262 36.4019 184.602C36.2057 186.224 36.0182 187.85 35.7872 189.433C35.7043 189.996 35.604 190.541 35.5081 191.09C35.5081 190.724 35.5081 190.419 35.5081 190.371C35.3206 188.936 34.1216 186.277 32.5259 185.98C32.2599 185.939 31.9882 185.954 31.7285 186.024C31.4687 186.095 31.2267 186.22 31.0183 186.39C30.8098 186.56 30.6394 186.772 30.5183 187.013C30.3972 187.253 30.3281 187.516 30.3154 187.785C30.2238 188.923 31.0478 190.065 31.8544 190.785C32.661 191.504 34.6012 192.158 35.277 192.376C35.1593 192.934 35.0416 193.492 34.9021 194.029C34.7974 194.39 34.7233 194.748 34.5969 195.11C34.4704 195.472 34.3658 195.821 34.2524 196.174C34.0126 196.841 33.7641 197.534 33.5112 198.179C33.3368 198.615 33.1624 199.051 32.9924 199.487C33.0796 198.934 33.2278 197.844 33.2278 197.743C33.2101 196.472 32.8663 195.226 32.2294 194.125C32.2347 193.979 32.226 193.833 32.2032 193.689C32.1701 193.422 32.081 193.165 31.9419 192.934C31.8027 192.704 31.6167 192.506 31.3957 192.353C31.1748 192.199 30.9241 192.094 30.6598 192.044C30.3955 191.994 30.1236 192 29.8619 192.062C28.2967 192.476 27.3026 195.223 27.2459 196.671C27.2459 196.754 27.2982 197.682 27.3418 198.271C27.2634 197.931 27.1892 197.599 27.1064 197.251C26.9407 196.557 26.7576 195.873 26.5614 195.132C26.4568 194.779 26.3478 194.421 26.2388 194.059C26.1298 193.697 25.9859 193.335 25.8594 192.965C25.5499 192.119 25.1967 191.277 24.8174 190.436C25.4234 190.292 27.5686 189.743 28.4275 189.084C29.2864 188.426 30.1976 187.34 30.1715 186.207C30.1785 185.938 30.1288 185.67 30.0257 185.422C29.9226 185.173 29.7684 184.949 29.5731 184.764C29.3778 184.579 29.1458 184.437 28.8921 184.348C28.6384 184.258 28.3687 184.223 28.1005 184.245C26.4916 184.419 25.0921 186.983 24.8 188.4C24.8 188.491 24.6866 189.529 24.643 190.1C24.4163 189.599 24.207 189.093 23.9367 188.592C23.2173 187.144 22.4456 185.697 21.6782 184.253C21.4428 183.817 21.216 183.381 20.985 182.924C21.203 182.876 23.7623 182.278 24.7302 181.542C25.6022 180.883 26.4742 179.798 26.4742 178.664C26.4812 178.395 26.4315 178.128 26.3284 177.879C26.2253 177.631 26.0711 177.407 25.8758 177.222C25.6805 177.037 25.4485 176.895 25.1948 176.805C24.9411 176.716 24.6714 176.68 24.4032 176.702C22.7944 176.876 21.3948 179.44 21.1027 180.857C21.0809 180.962 20.9457 182.462 20.9283 182.841C20.4225 181.864 19.9255 180.888 19.4764 179.907C18.8575 178.59 18.323 177.236 17.8763 175.852C17.9809 175.83 20.658 175.22 21.6433 174.465C22.5153 173.807 23.3873 172.721 23.3873 171.588C23.395 171.319 23.3458 171.051 23.2429 170.802C23.1401 170.553 22.9859 170.329 22.7904 170.144C22.595 169.959 22.3627 169.817 22.1086 169.727C21.8546 169.638 21.5846 169.603 21.3163 169.626C19.7075 169.8 18.3123 172.364 18.0202 173.781C17.994 173.894 17.8501 175.503 17.8458 175.795C17.8196 175.717 17.7847 175.634 17.7629 175.551C17.3623 174.142 17.088 172.701 16.9432 171.243C16.8517 170.437 16.8124 169.665 16.7863 168.911C17.2964 168.845 19.6246 168.536 20.5926 167.956C21.5605 167.376 22.5371 166.425 22.6548 165.287C22.6917 165.021 22.6719 164.749 22.5968 164.49C22.5218 164.232 22.393 163.992 22.2191 163.786C22.0451 163.58 21.8298 163.414 21.5871 163.297C21.3444 163.18 21.0798 163.115 20.8106 163.107C19.193 163.107 17.5231 165.501 17.074 166.879C17.074 166.953 16.8866 167.751 16.7776 168.318C16.7776 167.978 16.7776 167.624 16.7776 167.297C16.7776 166.072 16.856 164.952 16.9302 163.958C16.9825 163.395 17.0348 162.885 17.0915 162.41C17.5624 162.087 19.4328 160.766 20.0083 159.82C20.5838 158.874 21.0329 157.566 20.6144 156.502C20.5237 156.249 20.3808 156.017 20.1947 155.822C20.0086 155.627 19.7837 155.474 19.5344 155.372C19.2852 155.27 19.0173 155.222 18.7481 155.23C18.479 155.239 18.2146 155.304 17.9722 155.421C16.5334 156.162 16.1541 159.061 16.3939 160.487C16.3939 160.609 16.9563 162.501 16.9825 162.484C17.0086 162.467 17.0043 162.484 17.013 162.484C16.9476 162.92 16.8866 163.43 16.8299 163.966C16.7296 164.96 16.625 166.081 16.5988 167.311C16.5522 168.635 16.5842 169.962 16.6947 171.282C16.8126 172.758 17.0622 174.22 17.4403 175.651C17.4403 175.651 17.4403 175.682 17.4403 175.699C17.1874 175.298 16.4375 174.204 16.3677 174.125C15.4216 173.035 12.9495 171.474 11.4584 172.111C11.2134 172.223 10.9949 172.385 10.817 172.587C10.6392 172.79 10.506 173.027 10.4261 173.284C10.3463 173.541 10.3216 173.813 10.3538 174.08C10.3859 174.347 10.4741 174.605 10.6125 174.836C11.1619 175.834 12.4786 176.331 13.5468 176.484Z" fill="#008F84"/>
<path d="M41.3243 168.876C41.3504 168.876 41.8431 166.988 41.8606 166.861C42.0568 165.431 41.6033 162.545 40.1427 161.839C39.8968 161.727 39.6302 161.669 39.3603 161.668C39.0904 161.667 38.8233 161.722 38.5764 161.832C38.3295 161.941 38.1083 162.1 37.9275 162.301C37.7466 162.501 37.61 162.737 37.5267 162.994C37.1343 164.071 37.6314 165.388 38.22 166.295C38.9176 167.359 41.3243 168.876 41.3243 168.876Z" fill="#008F84"/>
<path d="M165.841 168.252C167.001 168.758 169.844 168.688 169.848 168.688C169.853 168.688 169.238 166.827 169.181 166.718C168.558 165.41 166.587 163.256 164.982 163.474C164.717 163.517 164.464 163.616 164.239 163.764C164.014 163.912 163.823 164.106 163.678 164.332C163.532 164.559 163.437 164.813 163.396 165.079C163.356 165.345 163.372 165.617 163.443 165.876C163.709 166.988 164.852 167.816 165.841 168.252Z" fill="#008F84"/>
<path d="M166.823 176.484C168.026 176.663 170.564 175.926 170.768 175.865C171.183 177.319 171.697 178.742 172.308 180.125C172.656 180.931 173.031 181.734 173.419 182.536C173.188 182.196 172.983 181.895 172.944 181.856C171.998 180.761 169.526 179.205 168.035 179.837C167.79 179.95 167.572 180.112 167.395 180.314C167.217 180.517 167.084 180.754 167.004 181.011C166.924 181.267 166.899 181.538 166.93 181.805C166.961 182.073 167.048 182.33 167.185 182.562C167.738 183.565 169.055 184.057 170.123 184.214C171.191 184.371 173.384 183.778 173.96 183.626C174.113 183.931 174.261 184.241 174.396 184.546C175.128 186.006 175.87 187.463 176.55 188.906C176.79 189.416 176.986 189.93 177.23 190.44C177.025 190.14 176.846 189.891 176.816 189.852C175.87 188.758 173.398 187.201 171.906 187.833C171.662 187.946 171.444 188.108 171.267 188.311C171.089 188.513 170.956 188.75 170.876 189.007C170.796 189.264 170.77 189.534 170.801 189.802C170.832 190.069 170.919 190.327 171.056 190.558C171.61 191.561 172.927 192.058 173.995 192.211C175.063 192.363 177.047 191.84 177.727 191.653C177.936 192.184 178.163 192.716 178.329 193.24C178.442 193.597 178.577 193.937 178.669 194.308C178.76 194.678 178.874 195.027 178.97 195.385C179.135 196.078 179.314 196.789 179.458 197.469C179.563 197.94 179.654 198.393 179.746 198.847C179.51 198.336 179.035 197.342 178.987 197.264C178.215 196.039 176.009 194.125 174.44 194.526C174.181 194.599 173.94 194.726 173.733 194.899C173.527 195.072 173.359 195.286 173.241 195.528C173.123 195.77 173.057 196.034 173.048 196.303C173.039 196.572 173.087 196.84 173.188 197.089C173.581 198.162 174.806 198.833 175.839 199.169C176.977 199.514 179.497 199.2 179.811 199.169C179.959 199.923 180.103 200.656 180.221 201.349C180.312 201.864 180.395 202.356 180.469 202.832H181.481C181.385 202.304 181.28 201.75 181.167 201.175C181.014 200.407 180.84 199.596 180.653 198.759C181.41 198.455 182.15 198.107 182.867 197.717C183.696 198.615 185.819 199.666 186.094 199.801C185.806 200.512 185.518 201.201 185.222 201.846C185.074 202.186 184.93 202.509 184.786 202.832H185.85L186.107 202.221C186.403 201.497 186.704 200.721 187.009 199.923C187.315 199.985 189.804 200.495 190.968 200.229C192.023 199.993 193.297 199.396 193.767 198.354C193.887 198.113 193.955 197.85 193.967 197.581C193.978 197.312 193.932 197.044 193.832 196.794C193.733 196.545 193.581 196.319 193.388 196.131C193.195 195.944 192.965 195.799 192.712 195.707C191.178 195.189 188.832 196.933 187.973 198.097C187.925 198.166 187.459 198.969 187.171 199.487C187.293 199.156 187.415 198.842 187.537 198.502C187.781 197.835 188.008 197.159 188.252 196.435C188.357 196.082 188.466 195.725 188.57 195.367C188.675 195.01 188.762 194.617 188.862 194.242C189.067 193.37 189.237 192.468 189.39 191.561C189.974 191.77 192.063 192.498 193.144 192.433C194.225 192.368 195.577 191.962 196.196 191.003C196.351 190.782 196.457 190.532 196.508 190.267C196.56 190.003 196.555 189.731 196.494 189.468C196.433 189.206 196.318 188.959 196.155 188.744C195.993 188.529 195.787 188.351 195.551 188.221C194.112 187.48 191.531 188.849 190.506 189.869C190.441 189.935 189.787 190.741 189.438 191.203C189.525 190.654 189.612 190.109 189.682 189.551C189.883 187.947 190.031 186.316 190.192 184.69C190.24 184.188 190.293 183.691 190.345 183.199C190.554 183.273 193.018 184.193 194.23 184.105C195.307 184.031 196.662 183.635 197.282 182.675C197.436 182.455 197.543 182.205 197.594 181.941C197.645 181.677 197.64 181.405 197.579 181.143C197.518 180.88 197.403 180.634 197.241 180.42C197.078 180.205 196.872 180.028 196.636 179.898C195.198 179.157 192.616 180.526 191.592 181.546C191.513 181.62 190.576 182.797 190.349 183.107C190.467 182.013 190.593 180.927 190.759 179.854C190.977 178.41 191.289 176.981 191.692 175.577C191.788 175.612 194.356 176.58 195.616 176.493C196.693 176.419 198.045 176.022 198.668 175.067C198.823 174.847 198.929 174.596 198.981 174.331C199.032 174.067 199.027 173.795 198.966 173.532C198.905 173.27 198.79 173.023 198.627 172.808C198.465 172.594 198.259 172.415 198.023 172.285C196.584 171.544 194.003 172.913 192.978 173.934C192.895 174.012 191.888 175.276 191.723 175.516C191.723 175.438 191.762 175.351 191.784 175.268C192.228 173.871 192.796 172.517 193.48 171.222C193.85 170.502 194.243 169.831 194.635 169.19C195.097 169.421 197.212 170.446 198.337 170.498C199.462 170.55 200.804 170.293 201.528 169.412C201.706 169.21 201.839 168.973 201.919 168.716C201.999 168.459 202.024 168.188 201.992 167.92C201.96 167.653 201.873 167.395 201.735 167.164C201.597 166.933 201.412 166.733 201.193 166.578C199.845 165.68 197.129 166.757 196 167.659C195.934 167.707 195.368 168.274 194.958 168.697C195.141 168.409 195.324 168.109 195.507 167.825C196.183 166.805 196.867 165.911 197.478 165.126C197.831 164.69 198.154 164.289 198.463 163.923C199.034 163.923 201.328 163.84 202.326 163.374C203.325 162.907 204.423 162.066 204.659 160.936C204.724 160.675 204.733 160.404 204.686 160.139C204.639 159.874 204.536 159.622 204.385 159.4C204.234 159.177 204.038 158.989 203.81 158.847C203.581 158.706 203.325 158.614 203.059 158.578C201.445 158.403 199.531 160.609 198.943 161.93C198.895 162.048 198.306 163.923 198.332 163.923H198.38C198.075 164.267 197.752 164.642 197.408 165.061C196.78 165.833 196.074 166.713 195.372 167.725C194.602 168.802 193.897 169.925 193.262 171.086C192.54 172.384 191.936 173.744 191.457 175.15C191.459 175.167 191.459 175.185 191.457 175.202C191.457 174.727 191.457 173.402 191.435 173.297C191.247 171.863 190.044 169.203 188.453 168.906C188.187 168.865 187.915 168.88 187.655 168.951C187.395 169.021 187.153 169.146 186.945 169.316C186.736 169.486 186.566 169.699 186.445 169.939C186.324 170.179 186.255 170.443 186.242 170.711C186.146 171.849 186.975 172.992 187.781 173.711C188.688 174.522 191.212 175.307 191.413 175.368C190.959 176.809 190.602 178.279 190.345 179.767C190.192 180.639 190.061 181.511 189.944 182.383C189.944 181.973 189.944 181.603 189.922 181.555C189.739 180.12 188.535 177.456 186.944 177.164C186.678 177.122 186.406 177.136 186.146 177.205C185.886 177.275 185.644 177.399 185.435 177.569C185.226 177.739 185.056 177.952 184.935 178.192C184.814 178.433 184.745 178.696 184.734 178.965C184.638 180.103 185.466 181.245 186.268 181.965C187.07 182.684 189.224 183.408 189.791 183.591C189.752 183.927 189.704 184.267 189.665 184.607C189.468 186.229 189.285 187.855 189.05 189.438C188.971 190 188.871 190.545 188.771 191.094C188.771 190.728 188.771 190.423 188.749 190.375C188.566 188.941 187.363 186.281 185.771 185.985C185.505 185.943 185.234 185.958 184.974 186.029C184.714 186.1 184.472 186.224 184.264 186.394C184.055 186.565 183.885 186.777 183.764 187.017C183.643 187.258 183.573 187.521 183.561 187.79C183.465 188.928 184.293 190.07 185.1 190.789C185.906 191.509 187.847 192.163 188.518 192.381C188.4 192.939 188.283 193.497 188.143 194.033C188.038 194.395 187.964 194.753 187.842 195.114C187.72 195.476 187.611 195.825 187.498 196.178C187.254 196.845 187.005 197.539 186.752 198.184C186.582 198.62 186.408 199.056 186.233 199.492C186.321 198.938 186.469 197.848 186.473 197.748C186.453 196.476 186.11 195.231 185.475 194.129C185.48 193.983 185.471 193.837 185.449 193.693C185.415 193.426 185.325 193.169 185.186 192.939C185.046 192.709 184.86 192.51 184.638 192.357C184.417 192.204 184.166 192.098 183.901 192.048C183.637 191.998 183.365 192.005 183.103 192.067C181.538 192.481 180.544 195.228 180.487 196.675C180.487 196.758 180.539 197.687 180.583 198.275C180.504 197.935 180.435 197.604 180.347 197.255C180.186 196.562 179.999 195.877 179.802 195.136C179.698 194.783 179.589 194.426 179.48 194.064C179.371 193.702 179.227 193.34 179.1 192.969C178.791 192.123 178.438 191.282 178.063 190.44C178.669 190.297 180.81 189.747 181.673 189.089C182.536 188.431 183.439 187.345 183.417 186.211C183.424 185.942 183.374 185.675 183.271 185.426C183.168 185.178 183.014 184.954 182.818 184.769C182.623 184.584 182.391 184.442 182.137 184.352C181.884 184.263 181.614 184.228 181.346 184.249C179.737 184.424 178.337 186.987 178.045 188.404C178.045 188.496 177.932 189.534 177.893 190.105C177.662 189.603 177.435 189.098 177.186 188.596C176.467 187.149 175.691 185.701 174.928 184.258C174.692 183.822 174.461 183.386 174.235 182.928C174.448 182.88 177.012 182.283 177.976 181.546C178.848 180.888 179.741 179.802 179.72 178.668C179.726 178.4 179.677 178.132 179.574 177.884C179.471 177.635 179.316 177.411 179.121 177.226C178.926 177.041 178.694 176.899 178.44 176.81C178.186 176.72 177.917 176.685 177.649 176.706C176.04 176.881 174.644 179.445 174.348 180.862C174.326 180.966 174.191 182.466 174.178 182.845C173.672 181.869 173.175 180.892 172.722 179.911C172.111 178.584 171.584 177.219 171.143 175.826C171.244 175.804 173.921 175.194 174.906 174.439C175.778 173.781 176.676 172.695 176.65 171.562C176.657 171.293 176.607 171.025 176.504 170.777C176.401 170.528 176.247 170.304 176.052 170.119C175.856 169.934 175.624 169.792 175.371 169.703C175.117 169.613 174.847 169.578 174.579 169.6C172.97 169.774 171.571 172.338 171.279 173.755C171.257 173.868 171.113 175.477 171.104 175.769C171.082 175.691 171.047 175.608 171.021 175.525C170.621 174.116 170.346 172.675 170.202 171.217C170.11 170.411 170.071 169.639 170.049 168.885C170.559 168.819 172.887 168.51 173.851 167.93C174.815 167.35 175.796 166.399 175.913 165.261C175.95 164.995 175.93 164.724 175.856 164.465C175.781 164.207 175.652 163.967 175.479 163.762C175.305 163.556 175.091 163.389 174.848 163.272C174.606 163.155 174.342 163.09 174.073 163.081C172.451 163.081 170.782 165.475 170.337 166.853C170.311 166.927 170.149 167.725 170.04 168.292C170.04 167.952 170.04 167.598 170.04 167.271C170.04 166.046 170.119 164.926 170.197 163.932C170.245 163.369 170.298 162.859 170.354 162.384C170.825 162.061 172.7 160.74 173.275 159.794C173.851 158.848 174.296 157.54 173.877 156.476C173.787 156.223 173.644 155.991 173.459 155.796C173.273 155.602 173.049 155.448 172.8 155.346C172.551 155.244 172.283 155.196 172.014 155.204C171.745 155.213 171.481 155.278 171.239 155.395C169.801 156.136 169.421 159.035 169.657 160.461C169.678 160.583 170.223 162.475 170.245 162.458H170.276C170.21 162.894 170.149 163.404 170.093 163.94C169.992 164.934 169.892 166.055 169.862 167.285C169.817 168.609 169.849 169.935 169.957 171.256C170.072 172.738 170.318 174.206 170.694 175.643V175.691C170.441 175.289 169.692 174.195 169.626 174.117C168.68 173.027 166.208 171.466 164.717 172.102C164.472 172.213 164.253 172.375 164.074 172.577C163.896 172.778 163.762 173.015 163.682 173.272C163.602 173.529 163.577 173.8 163.609 174.067C163.64 174.335 163.728 174.592 163.867 174.823C164.433 175.834 165.754 176.332 166.823 176.484Z" fill="#008F84"/>
<path d="M194.596 168.876C194.622 168.876 195.114 166.988 195.132 166.861C195.332 165.431 194.875 162.545 193.414 161.839C193.168 161.727 192.902 161.669 192.632 161.668C192.362 161.667 192.095 161.722 191.848 161.832C191.601 161.941 191.38 162.1 191.199 162.301C191.018 162.501 190.881 162.737 190.798 162.994C190.41 164.071 190.903 165.388 191.491 166.295C192.189 167.359 194.596 168.876 194.596 168.876Z" fill="#008F84"/>
</g>
<path d="M103.112 198.692C103.112 198.692 105.152 200.021 105.79 200.228C106.502 200.449 107.227 200.613 107.959 200.719C108.256 200.719 108.468 200.865 108.468 201.211C108.44 201.55 108.303 201.865 108.085 202.094C107.959 202.194 104.856 202.931 104.048 202.931C103.24 202.931 100.604 204.011 99.9242 203.914C99.2446 203.817 98.9901 203.571 98.9038 203.177C98.8174 202.783 99.0321 201.014 99.0321 201.014L103.112 198.692Z" fill="white" stroke="#333333" stroke-width="0.4" stroke-linecap="round" stroke-linejoin="round"/>
<path d="M108.084 202.382C108.302 202.19 108.439 201.925 108.467 201.64C108.472 201.574 108.458 201.508 108.427 201.449C108.396 201.391 108.35 201.341 108.292 201.306C108.071 201.633 107.756 202.042 107.49 202.094C107.063 202.176 102.768 202.921 101.661 203.002L98.8833 203.218C98.8833 203.248 98.8877 203.274 98.8966 203.295C98.983 203.627 99.2377 203.833 99.9177 203.915C100.598 203.997 103.24 203.088 104.044 203.088C104.848 203.088 107.958 202.466 108.084 202.382Z" fill="white" stroke="#333333" stroke-width="0.4" stroke-linecap="round" stroke-linejoin="round"/>
<path d="M82.3566 200.658C82.3427 200.961 82.38 201.264 82.467 201.554C82.6136 202.076 83.2284 202.934 83.1979 203.38C83.1675 203.827 82.979 203.976 81.8084 203.902C80.6378 203.829 79.3967 203.829 78.9532 202.932C78.5097 202.036 79.5395 200.435 79.5395 200.435L82.3566 200.658Z" fill="white" stroke="#333333" stroke-width="0.4" stroke-linecap="round" stroke-linejoin="round"/>
<path d="M83.1984 203.551C83.2022 203.487 83.1892 203.423 83.16 203.363C82.985 203.514 82.7375 203.617 82.4625 203.653C81.8358 203.73 80.546 203.73 79.7392 203.448C79.4224 203.335 79.122 203.202 78.8423 203.049C78.8579 203.116 78.8869 203.181 78.9285 203.242C79.3712 203.855 80.6227 203.855 81.8032 203.907C82.9837 203.959 83.162 203.858 83.1984 203.551Z" fill="white" stroke="#333333" stroke-width="0.4" stroke-linecap="round" stroke-linejoin="round"/>
<path d="M80.1744 166.998L81.962 185.481L79.3638 197.371L78.8423 198.589V200.237C78.8423 200.237 78.9903 200.165 79.8101 200.524C80.6299 200.883 82.044 200.524 82.044 200.524L82.3423 200.452L83.0869 198.375L83.235 196.869C83.235 196.869 87.7756 184.692 87.9988 183.761C88.222 182.83 88.7002 174.905 88.7002 174.905L88.6 172.902L95.4315 184.76L98.3349 198.226L97.8795 199.014L98.8473 201.306L103.24 199.087L102.942 197.654L102.272 196.436C102.272 196.436 100.783 181.607 100.56 181.318C100.337 181.029 94.0083 166.991 94.0083 166.991L93.1885 163.838L80.1744 166.998Z" fill="#333333" stroke="#333333" stroke-width="0.4" stroke-linecap="round" stroke-linejoin="round"/>
<path d="M93.094 145.497L94.766 150.362L88.4272 146.408L90.6572 154.096C90.6572 154.096 98.6679 154.535 98.8768 153.948C99.0273 153.527 96.5445 147.823 95.1463 144.669L93.094 145.497Z" fill="white" stroke="#333333" stroke-width="0.4" stroke-linecap="round" stroke-linejoin="round"/>
<path d="M93.6553 147.283L95.398 146.411" stroke="#333333" stroke-linecap="round" stroke-linejoin="round"/>
<path d="M77.1635 148.216L71.8716 153.33L78.9028 163.78C78.9028 163.78 79.2637 166.336 79.7725 166.864C79.9033 167.027 80.0712 167.154 80.261 167.232C80.4508 167.311 80.6565 167.34 80.8596 167.315C81.077 167.315 91.9478 164.757 92.7435 164.457C93.5393 164.157 93.7589 163.555 93.6132 162.953C93.4675 162.35 91.8739 160.097 91.8739 160.097L87.8886 146.411H83.0337L78.7571 147.465L77.1635 148.216Z" fill="white" stroke="#333333" stroke-width="0.4" stroke-linecap="round" stroke-linejoin="round"/>
<path opacity="0.6" d="M80.585 150.462L82.6013 151.926L83.9263 164.707L86.5187 166.452L87.5557 163.637L83.235 151.757L82.947 148.661L81.5067 148.154L80.585 150.462Z" fill="#008F84" stroke="#333333" stroke-width="0.4" stroke-linecap="round" stroke-linejoin="round"/>
<path d="M78.0605 145.868C77.6862 146.211 77.43 146.67 77.3306 147.175C77.178 148.007 77.0996 148.8 77.0996 148.8L79.6293 152.511C79.6293 152.511 81.0892 150.529 81.2025 150.41C81.3262 150.319 81.4673 150.256 81.6165 150.226C81.9706 150.003 82.3059 149.75 82.6188 149.469C82.7778 149.262 83.0851 148.905 84.083 149.143C85.0809 149.381 85.8131 149.62 85.8131 149.62C85.8131 149.62 84.6212 147.124 83.9697 146.412C83.3182 145.7 82.2397 145.54 81.7407 145.54C81.2417 145.54 79.0519 146.016 79.0519 146.016L78.0605 145.868Z" fill="white" stroke="#333333" stroke-width="0.4" stroke-linecap="round" stroke-linejoin="round"/>
<path d="M80.2087 137.698C80.2087 137.698 82.2059 139.97 82.5993 139.97C82.9926 139.97 83.9967 139.839 83.9967 140.294C84.0049 140.538 83.9589 140.781 83.8619 141.006C83.8619 141.006 84.7312 143.407 84.9268 144.122C85.1224 144.836 83.3295 145.226 83.3295 145.226L82.4602 145.484C82.4602 145.484 82.86 148.6 82.5949 149.183C82.3298 149.765 81.5952 149.897 81.5952 149.897L78.1462 146.209L78.081 145.361C78.081 145.361 74.4213 142.182 74.4865 141.727C74.5517 141.271 80.2087 137.698 80.2087 137.698Z" fill="white" stroke="#333333" stroke-width="0.4" stroke-linecap="round" stroke-linejoin="round"/>
<path d="M80.585 139.441C80.6927 139.441 80.8288 139.441 80.981 139.441C81.1332 139.441 81.2966 139.441 81.4563 139.441" fill="#333333"/>
<path d="M80.585 139.441C80.6927 139.441 80.8288 139.441 80.981 139.441C81.1332 139.441 81.2966 139.441 81.4563 139.441" stroke="#333333" stroke-linecap="round" stroke-linejoin="round"/>
<path d="M84.0706 142.055V142.926" stroke="#333333" stroke-linecap="round" stroke-linejoin="round"/>
<path d="M84.2115 140.951C84.2115 140.951 82.4803 142.093 82.4001 142.503C82.3198 142.913 82.5629 144.032 82.5629 144.032C82.5629 144.032 81.0656 143.846 80.6621 143.846C80.2585 143.846 78.3187 141.907 78.5205 141.683C78.7222 141.459 79.4904 140.752 79.3688 140.378C79.2473 140.004 78.1559 139.858 78.924 139.224C79.6921 138.589 83.088 137.471 83.2485 136.801C83.409 136.13 80.9854 136.018 80.5405 136.429C80.3234 136.641 80.0793 136.828 79.8137 136.987C79.8137 136.987 80.0567 135.507 78.5594 136.092C76.808 136.81 75.39 138.078 74.5583 139.67C73.7099 141.385 73.1435 141.497 74.1547 142.391C75.1659 143.285 77.3877 145.262 77.8234 145.336C78.2591 145.41 78.5113 145.708 78.5113 145.41C78.5113 145.112 77.6216 144.032 77.8234 143.583C78.0252 143.135 78.188 142.913 78.5915 143.397C78.9951 143.882 79.6417 144.964 80.3708 145.3C81.1 145.636 82.9573 145.374 82.9573 145.374C82.9573 145.374 85.3809 144.854 85.7088 144.332C86.0367 143.81 85.5047 142.989 85.3029 142.877C85.1012 142.765 84.9407 142.803 84.8581 143.139C84.7756 143.476 84.1702 143.81 84.0097 143.438C83.8492 143.065 83.5259 142.393 83.7667 142.281C84.0074 142.169 84.5761 142.021 84.5761 141.573C84.5761 141.124 84.489 140.892 84.2115 140.951Z" fill="#333333" stroke="#333333" stroke-width="0.4" stroke-linecap="round" stroke-linejoin="round"/>
<path d="M78.639 143.076C78.639 143.076 77.9968 142.009 77.5368 142.056C77.0768 142.103 76.8945 142.735 77.4153 143.752C77.936 144.77 78.5765 144.819 78.7605 144.481C78.9445 144.143 78.7605 143.511 78.7605 143.511" fill="white"/>
<path d="M78.639 143.076C78.639 143.076 77.9968 142.009 77.5368 142.056C77.0768 142.103 76.8945 142.735 77.4153 143.752C77.936 144.77 78.5765 144.819 78.7605 144.481C78.9445 144.143 78.7605 143.511 78.7605 143.511" stroke="#333333" stroke-linecap="round" stroke-linejoin="round"/>
<path d="M95.3936 137.698L67.9998 167.153" stroke="#0E8A74" stroke-width="10" stroke-linecap="round" stroke-linejoin="round"/>
<path d="M110 123.5L94.7478 138.512" stroke="#0E8A74" stroke-width="6" stroke-linecap="round" stroke-linejoin="round"/>
<path d="M128.063 88.7904C124.048 88.2227 119.956 88.8582 116.302 90.6166C112.649 92.375 109.599 95.1772 107.538 98.669C105.477 102.161 104.498 106.185 104.725 110.233C104.951 114.282 106.373 118.172 108.81 121.412C111.248 124.652 114.591 127.097 118.418 128.437C122.244 129.777 126.383 129.952 130.309 128.94C134.235 127.928 137.773 125.775 140.475 122.752C143.178 119.729 144.923 115.973 145.491 111.959C146.252 106.575 144.844 101.11 141.575 96.7651C138.307 92.4202 133.446 89.5516 128.063 88.7904ZM122.716 126.606C119.251 126.116 116.01 124.61 113.401 122.278C110.792 119.945 108.934 116.892 108.061 113.504C107.188 110.115 107.339 106.544 108.495 103.242C109.652 99.939 111.761 97.0536 114.558 94.9502C117.354 92.8467 120.711 91.6197 124.205 91.4243C127.698 91.2289 131.171 92.0738 134.185 93.8523C137.198 95.6308 139.617 98.2629 141.134 101.416C142.652 104.569 143.2 108.101 142.71 111.565C142.053 116.211 139.578 120.406 135.828 123.227C132.078 126.047 127.362 127.263 122.716 126.606Z" fill="#0E8A74"/>
<path d="M93.4487 145.54L95.3778 144.688C94.8649 143.432 94.5079 142.569 94.5079 142.569C94.5079 142.569 96.2693 140.309 96.2693 139.857C96.2693 139.405 95.6776 138.049 95.216 137.746C94.7544 137.443 94.0996 138.65 93.9674 139.028C93.8353 139.405 94.1647 141.136 94.1647 141.136L92.7839 143.414L93.4487 145.54Z" fill="white" stroke="#333333" stroke-width="0.4" stroke-linecap="round" stroke-linejoin="round"/>
<path d="M93.6553 139.441L94.5266 141.183" stroke="#333333" stroke-width="0.4" stroke-linecap="round" stroke-linejoin="round"/>
<path d="M94.5266 138.569L95.398 140.312" stroke="#333333" stroke-width="0.4" stroke-linecap="round" stroke-linejoin="round"/>
<path d="M94.5266 137.698L96.2693 140.312" stroke="#333333" stroke-width="0.4" stroke-linecap="round" stroke-linejoin="round"/>
<path d="M71.8716 153.382C71.8716 153.382 72.9738 168.744 73.4762 169.021C73.9787 169.299 75.6127 168.207 75.6127 168.207L77.0997 160.753L71.8716 153.382Z" fill="white" stroke="#333333" stroke-width="0.4" stroke-linecap="round" stroke-linejoin="round"/>
<path d="M73.5422 164.489L80.0504 158.714L80.0153 157.037L81.5482 155.748C81.5482 155.748 81.8701 154.837 82.0475 155.219C82.2248 155.6 82.3475 155.835 82.1701 156.106C81.9927 156.377 81.4869 156.974 81.4869 156.974L83.6636 156.553C83.6636 156.553 84.211 156.905 84.0358 157.176C83.8582 157.388 83.6392 157.562 83.392 157.688L83.103 158.313C83.103 158.313 82.9431 159.094 82.6869 159.431C82.4307 159.767 81.1409 160.138 81.1409 160.138C81.1409 160.138 76.3999 167.195 75.789 168.074C75.178 168.953 74.1816 170.012 73.4568 169.934C72.732 169.856 72.7429 165.858 72.7429 165.858" fill="white"/>
<path d="M73.5422 164.489L80.0504 158.714L80.0153 157.037L81.5482 155.748C81.5482 155.748 81.8701 154.837 82.0475 155.219C82.2248 155.6 82.3475 155.835 82.1701 156.106C81.9927 156.377 81.4869 156.974 81.4869 156.974L83.6636 156.553C83.6636 156.553 84.211 156.905 84.0358 157.176C83.8582 157.388 83.6392 157.562 83.392 157.688L83.103 158.313C83.103 158.313 82.9431 159.094 82.6869 159.431C82.4307 159.767 81.1409 160.138 81.1409 160.138C81.1409 160.138 76.3999 167.195 75.789 168.074C75.178 168.953 74.1816 170.012 73.4568 169.934C72.732 169.856 72.7429 165.858 72.7429 165.858" stroke="#333333" stroke-width="0.4" stroke-linecap="round" stroke-linejoin="round"/>
<path d="M83.7084 156.636L81.7984 157.081C81.7984 157.081 82.2423 156.445 82.3979 156.163C82.5536 155.881 82.446 155.631 82.2903 155.225C82.1347 154.819 81.8522 155.785 81.8522 155.785L80.5072 157.147L80.5379 158.921L79.7136 159.804L81.0587 161.224L81.5025 160.431C81.5025 160.431 82.6324 160.038 82.8591 159.683C83.0858 159.327 83.2242 158.501 83.2242 158.501L83.4778 157.84C83.6947 157.707 83.8869 157.523 84.0427 157.299C84.1887 157.007 83.7084 156.636 83.7084 156.636Z" fill="white" stroke="#333333" stroke-width="0.4" stroke-linecap="round" stroke-linejoin="round"/>
<path d="M78.8423 160.353L80.585 162.096" stroke="#333333" stroke-width="0.4" stroke-linecap="round" stroke-linejoin="round"/>
<path fill-rule="evenodd" clip-rule="evenodd" d="M125.488 98C126.862 98 127.976 99.15 127.976 100.568V110.5C127.976 111.919 126.862 113.069 125.488 113.069C124.114 113.069 123 111.919 123 110.5V100.568C123 99.15 124.114 98 125.488 98ZM125.488 115.613C124.114 115.613 123 116.763 123 118.182C123 119.6 124.114 120.75 125.488 120.75H125.512C126.886 120.75 128 119.6 128 118.182C128 116.763 126.886 115.613 125.512 115.613H125.488Z" fill="#008F84"/>
</g>
</svg>
