<svg width="15" height="18" viewBox="0 0 15 18" fill="none" xmlns="http://www.w3.org/2000/svg">
<path fill-rule="evenodd" clip-rule="evenodd" d="M2.72005 0.199951H9.10005C9.31885 0.199951 9.5287 0.286871 9.68341 0.441588L14.4684 5.22659C14.6231 5.38131 14.71 5.59115 14.71 5.80995V15.38C14.71 16.698 13.6081 17.7999 12.29 17.7999H2.72005C1.40196 17.7999 0.300049 16.698 0.300049 15.38V2.61995C0.300049 1.30186 1.40196 0.199951 2.72005 0.199951ZM2.72005 1.84995C2.31162 1.84995 1.95005 2.21152 1.95005 2.61995V15.38C1.95005 15.7884 2.31162 16.15 2.72005 16.15H12.29C12.6985 16.15 13.06 15.7884 13.06 15.38V6.63496H9.10005C8.64441 6.63496 8.27505 6.26559 8.27505 5.80996V1.84995H2.72005ZM9.92505 3.01668L11.8933 4.98496H9.92505V3.01668ZM3.49048 6.60767C3.49048 6.15203 3.85984 5.78267 4.31548 5.78267H5.91048C6.36611 5.78267 6.73548 6.15203 6.73548 6.60767C6.73548 7.0633 6.36611 7.43267 5.91048 7.43267H4.31548C3.85984 7.43267 3.49048 7.0633 3.49048 6.60767ZM4.31548 8.97256C3.85984 8.97256 3.49048 9.34192 3.49048 9.79756C3.49048 10.2532 3.85984 10.6226 4.31548 10.6226H10.6955C11.1511 10.6226 11.5205 10.2532 11.5205 9.79756C11.5205 9.34192 11.1511 8.97256 10.6955 8.97256H4.31548ZM4.31548 12.1624C3.85984 12.1624 3.49048 12.5318 3.49048 12.9874C3.49048 13.4431 3.85984 13.8125 4.31548 13.8125H10.6955C11.1511 13.8125 11.5205 13.4431 11.5205 12.9874C11.5205 12.5318 11.1511 12.1624 10.6955 12.1624H4.31548Z" fill="#595F69"/>
</svg>
