<svg width="20" height="16" viewBox="0 0 20 16" fill="none" xmlns="http://www.w3.org/2000/svg">
<path d="M9.9999 6.04995C8.40918 6.04995 7.1199 7.36035 7.1199 8.97495C7.1199 10.5896 8.40918 11.9 9.9999 11.9C11.5897 11.9 12.8799 10.5896 12.8799 8.97495C12.8799 7.36035 11.5897 6.04995 9.9999 6.04995ZM17.6799 3.12495H15.3759C15.0591 3.12495 14.7173 2.87535 14.6185 2.5692L14.0223 0.754726C13.9215 0.449551 13.5817 0.199951 13.2639 0.199951H6.7359C6.4191 0.199951 6.07734 0.449551 5.97846 0.753751L5.38134 2.5692C5.2815 2.87535 4.9407 3.12495 4.6239 3.12495H2.3199C1.2639 3.12495 0.399902 4.00245 0.399902 5.07495V13.85C0.399902 14.9225 1.2639 15.8 2.3199 15.8H17.6799C18.7359 15.8 19.5999 14.9225 19.5999 13.85V5.07495C19.5999 4.00245 18.7359 3.12495 17.6799 3.12495ZM9.9999 13.85C7.34838 13.85 5.1999 11.6679 5.1999 8.97495C5.1999 6.282 7.34838 4.09995 9.9999 4.09995C12.6505 4.09995 14.7999 6.282 14.7999 8.97495C14.7999 11.6679 12.6505 13.85 9.9999 13.85ZM17.1999 6.24495C16.8284 6.24495 16.5279 5.9388 16.5279 5.56148C16.5279 5.1861 16.8284 4.87898 17.1999 4.87898C17.5714 4.87898 17.8719 5.18513 17.8719 5.56148C17.8719 5.9388 17.5714 6.24495 17.1999 6.24495Z" fill="#3F434A"/>
</svg>
