<svg width="20" height="21" viewBox="0 0 20 21" fill="none" xmlns="http://www.w3.org/2000/svg">
<g clip-path="url(#clip0)">
<path d="M19.1666 3.76196V8.76196H14.1666" stroke="white" stroke-width="2" stroke-linecap="round" stroke-linejoin="round"/>
<path d="M17.0751 12.9288C16.5334 14.4621 15.508 15.7777 14.1535 16.6776C12.799 17.5774 11.1888 18.0126 9.56541 17.9176C7.94205 17.8227 6.39352 17.2027 5.15319 16.151C3.91286 15.0994 3.04792 13.6732 2.6887 12.0872C2.32949 10.5012 2.49546 8.84146 3.16161 7.35803C3.82777 5.8746 4.95801 4.64786 6.38202 3.86267C7.80604 3.07748 9.44667 2.77639 11.0567 3.00476C12.6667 3.23313 14.1589 3.97859 15.3084 5.1288L19.1667 8.76214" stroke="white" stroke-width="2" stroke-linecap="round" stroke-linejoin="round"/>
</g>
<defs>
<clipPath id="clip0">
<rect width="20" height="20" fill="white" transform="translate(0 0.428711)"/>
</clipPath>
</defs>
</svg>
