<svg width="20" height="20" viewBox="0 0 20 20" fill="none" xmlns="http://www.w3.org/2000/svg">
<mask id="mask0" mask-type="alpha" maskUnits="userSpaceOnUse" x="0" y="0" width="20" height="20">
<path fill-rule="evenodd" clip-rule="evenodd" d="M10 20C15.5228 20 20 15.5228 20 10C20 4.47715 15.5228 0 10 0C4.47715 0 0 4.47715 0 10C0 15.5228 4.47715 20 10 20Z" fill="#C4C4C4"/>
</mask>
<g mask="url(#mask0)">
<rect width="20" height="20" fill="white"/>
<path fill-rule="evenodd" clip-rule="evenodd" d="M15.3199 5.81756C15.6399 6.15448 15.6263 6.68707 15.2894 7.00714L8.5579 13.402C8.22707 13.7163 7.70603 13.7097 7.38338 13.387L4.69079 10.6944C4.36219 10.3658 4.36219 9.83303 4.69079 9.50443C5.01939 9.17583 5.55216 9.17583 5.88075 9.50443L7.99343 11.6171L14.1303 5.78706C14.4672 5.46699 14.9998 5.48065 15.3199 5.81756Z" fill="#E8E9EB"/>
<path d="M19.25 10C19.25 15.1086 15.1086 19.25 10 19.25C4.89137 19.25 0.75 15.1086 0.75 10C0.75 4.89137 4.89137 0.75 10 0.75C15.1086 0.75 19.25 4.89137 19.25 10Z" stroke="#E8E9EB" stroke-width="1.5"/>
</g>
</svg>
