<svg width="296" height="248" viewBox="0 0 296 248" fill="none" xmlns="http://www.w3.org/2000/svg">
<path opacity="0.16" d="M119.688 213.056C151.71 213.056 177.668 207.74 177.668 201.182C177.668 194.624 151.71 189.308 119.688 189.308C87.6674 189.308 61.7091 194.624 61.7091 201.182C61.7091 207.74 87.6674 213.056 119.688 213.056Z" fill="black"/>
<path opacity="0.16" d="M231.409 214.074C242.738 214.074 251.922 211.644 251.922 208.646C251.922 205.648 242.738 203.218 231.409 203.218C220.08 203.218 210.896 205.648 210.896 208.646C210.896 211.644 220.08 214.074 231.409 214.074Z" fill="black"/>
<path d="M67.0498 91.8901L65.1361 92.3703L66.6928 75.6481L68.9635 72.8999V69.6763L62.0276 71.3499L62.7464 75.5293C62.7464 75.5293 58.6811 95.4798 58.4431 96.7921C58.205 98.1044 58.8001 101.452 59.1619 101.571C59.5189 101.689 68.2494 99.5403 68.2494 99.5403L67.0498 91.8901Z" fill="white" stroke="#263238" stroke-miterlimit="10" stroke-linecap="round" stroke-linejoin="round"/>
<path d="M113.097 82.6946L124.222 63.3432L123.984 57.3713L124.703 55.6977L131.52 55.3411C131.52 55.3411 130.087 60.3572 130.087 60.7186C130.087 61.0799 127.935 64.5413 127.935 64.5413L119.086 87.9533L112.745 89.7458L113.097 82.6946Z" fill="white" stroke="#263238" stroke-miterlimit="10" stroke-linecap="round" stroke-linejoin="round"/>
<path d="M55.606 73.9745L200.226 37.7297" stroke="#263238" stroke-width="3" stroke-miterlimit="10" stroke-linecap="round" stroke-linejoin="round"/>
<path d="M126.131 57.2476L131.272 56.7722L131.396 54.1428H125.055L124.936 56.2919L126.131 57.2476Z" fill="white" stroke="#263238" stroke-miterlimit="10" stroke-linecap="round" stroke-linejoin="round"/>
<path d="M124.936 61.4319L122.304 56.5346L123.86 53.9053L126.969 52.4741C126.969 52.4741 127.807 52.7119 127.45 53.6675C127.093 54.6232 125.298 55.3412 125.298 55.3412C125.298 55.3412 126.731 57.8516 126.855 59.2828" fill="white"/>
<path d="M124.936 61.4319L122.304 56.5346L123.86 53.9053L126.969 52.4741C126.969 52.4741 127.807 52.7119 127.45 53.6675C127.093 54.6232 125.298 55.3412 125.298 55.3412C125.298 55.3412 126.731 57.8516 126.855 59.2828" stroke="#263238" stroke-miterlimit="10" stroke-linecap="round" stroke-linejoin="round"/>
<path d="M79.9411 190.435C79.9411 190.435 74.7047 193.821 74.0859 195.975C73.4718 198.128 75.4711 198.742 77.937 197.819C80.4029 196.897 83.0211 194.125 83.0211 194.125C83.0211 194.125 84.7158 194.738 85.1775 192.741C85.6393 190.74 84.1017 188.434 84.1017 188.434L79.9411 190.435Z" fill="white" stroke="#263238" stroke-miterlimit="10" stroke-linecap="round" stroke-linejoin="round"/>
<path d="M107.361 189.974C107.361 189.974 109.365 194.13 111.826 195.356C114.292 196.588 116.639 196.754 116.448 194.743C116.139 191.515 109.979 188.281 109.979 188.281L107.361 189.974Z" fill="white" stroke="#263238" stroke-miterlimit="10" stroke-linecap="round" stroke-linejoin="round"/>
<path d="M77.2135 125.101L77.323 154.899C77.323 154.899 77.4753 165.977 77.6324 173.361C77.7847 180.745 79.4794 191.206 79.4794 191.206C79.4794 191.206 81.3265 191.819 83.0212 191.358C84.7158 190.897 85.1776 189.513 85.1776 189.513L86.4105 171.36L88.8764 143.978L90.7234 144.439L97.964 167.822L105.976 189.513C105.976 189.513 106.128 190.588 107.67 190.588C109.213 190.588 111.212 188.743 111.212 188.743C111.212 188.743 108.442 169.206 107.823 166.13C107.209 163.053 106.59 161.513 106.59 161.513L98.7351 126.128L98.121 125.054L77.9418 123.513L77.2135 125.101Z" fill="#5D9A90" stroke="#263238" stroke-miterlimit="10" stroke-linecap="round" stroke-linejoin="round"/>
<path d="M85.5866 87.4729L76.9751 88.072L66.45 91.657L68.3636 102.888L76.2563 101.214L77.2132 125.106C77.2132 125.106 78.051 126.062 82.4734 126.899C86.9005 127.735 92.9985 127.017 95.2692 126.661C97.5399 126.304 98.2588 125.705 98.6158 125.23C98.9728 124.754 103.162 97.995 103.162 97.995L113.449 94.8902L113.33 81.8672L104.119 84.972L90.6041 87.4824H85.5866V87.4729Z" fill="#D7FFF6" stroke="#263238" stroke-miterlimit="10" stroke-linecap="round" stroke-linejoin="round"/>
<path d="M84.3348 83.441L84.8299 88.0245L88.2145 97.2581L92.8749 88.6569L93.0892 87.1069L86.0295 80.7642L84.3348 83.441Z" fill="white" stroke="#263238" stroke-miterlimit="10" stroke-linecap="round" stroke-linejoin="round"/>
<path d="M87.5432 86.199L90.8612 91.8095L92.9034 87.8536L87.5432 86.199Z" fill="#E5E5E5"/>
<path d="M95.7693 73.4992C95.7693 73.4992 96.3358 78.0827 96.1929 79.3522C96.0501 80.6216 96.0501 84.0735 95.6979 85.2051C95.3456 86.3368 95.3456 87.4636 94.5697 87.882C93.7937 88.3052 90.828 87.882 89.9093 87.8107C88.9905 87.7394 87.3672 86.4699 87.0149 85.6235C86.6627 84.7772 85.8867 82.2382 85.8867 82.2382C85.8867 82.2382 84.6157 78.3584 84.5443 78.0779C84.4729 77.7974 84.1206 75.1871 86.0962 73.7749C88.0718 72.3628 91.1089 72.3628 92.0943 72.3628C93.0892 72.3723 95.7693 73.4992 95.7693 73.4992Z" fill="white" stroke="#263238" stroke-miterlimit="10" stroke-linecap="round" stroke-linejoin="round"/>
<path d="M95.1074 83.926C95.1074 83.926 93.7078 84.4871 92.7319 83.9973" stroke="#263238" stroke-miterlimit="10" stroke-linecap="round" stroke-linejoin="round"/>
<path d="M92.237 79.8752C92.237 80.2223 92.1133 80.5028 91.9562 80.5028C91.8038 80.5028 91.6753 80.2223 91.6753 79.8752C91.6753 79.5281 91.7991 79.2476 91.9562 79.2476C92.1133 79.2476 92.237 79.5281 92.237 79.8752Z" fill="#263238"/>
<path d="M95.9118 77.5881L94.7122 78.7197L95.4881 82.5235L93.2983 82.7374" stroke="#263238" stroke-miterlimit="10" stroke-linecap="round" stroke-linejoin="round"/>
<path d="M92.9367 78.0588L90.4994 78.5866" stroke="#263238" stroke-miterlimit="10" stroke-linecap="round" stroke-linejoin="round"/>
<path d="M86.1675 78.2966C86.1675 78.2966 87.5813 77.3076 87.9336 77.0984C88.2859 76.8892 87.2291 75.477 87.9336 74.4881C88.6381 73.4991 92.594 73.6417 94.2173 73.6417C95.8406 73.6417 97.4639 73.7131 96.8307 71.3167C96.1976 68.9204 93.0891 67.5796 91.323 67.4369C89.5569 67.2943 86.1008 69.0583 86.1008 69.0583C86.1008 69.0583 83.4207 69.5527 81.7927 70.6796C80.1694 71.8064 79.8171 74.4881 80.9454 76.6039C82.0736 78.7197 82.7115 79.7753 82.7115 79.7753L85.958 79.0716L86.1675 78.2966Z" fill="#263238" stroke="#263238" stroke-miterlimit="10" stroke-linecap="round" stroke-linejoin="round"/>
<path d="M84.0872 77.8021C84.0872 77.8021 84.2633 70.399 86.1008 69.0582C86.1008 69.0582 83.7016 68.4924 82.1497 70.399C82.1497 70.399 81.1595 74.5594 82.8542 78.9289L84.2681 79.0002L84.0872 77.8021Z" fill="#7EE8FF" stroke="#263238" stroke-miterlimit="10" stroke-linecap="round" stroke-linejoin="round"/>
<path d="M87.1576 80.8688C87.1576 82.5614 85.7818 83.9355 84.0872 83.9355C82.3925 83.9355 81.0167 82.5614 81.0167 80.8688C81.0167 79.1761 82.3925 77.802 84.0872 77.802C85.7818 77.802 87.1576 79.1761 87.1576 80.8688Z" fill="#4ABED8" stroke="#263238" stroke-miterlimit="10" stroke-linecap="round" stroke-linejoin="round"/>
<path d="M62.0277 70.1517L62.7418 73.1376L68.7256 71.3451L68.1258 67.9978L62.0277 70.1517Z" fill="white" stroke="#263238" stroke-miterlimit="10" stroke-linecap="round" stroke-linejoin="round"/>
<path d="M65.855 74.5688C64.6601 73.2565 66.212 72.0583 66.212 72.0583L64.6554 72.1772L64.4174 71.3404L68.8445 70.147C68.8445 70.147 68.6065 72.4149 68.9635 72.8952C69.3205 73.3706 66.6928 75.6434 66.6928 75.6434" fill="white"/>
<path d="M65.855 74.5688C64.6601 73.2565 66.212 72.0583 66.212 72.0583L64.6554 72.1772L64.4174 71.3404L68.8445 70.147C68.8445 70.147 68.6065 72.4149 68.9635 72.8952C69.3205 73.3706 66.6928 75.6434 66.6928 75.6434" stroke="#263238" stroke-miterlimit="10" stroke-linecap="round" stroke-linejoin="round"/>
<path d="M206.081 65.2355L203.268 65.4399C202.597 65.4875 202.002 65.012 201.911 64.3463L199.564 47.4578C199.46 46.7256 199.998 46.0647 200.735 46.0076L205.234 45.6795C205.972 45.6272 206.6 46.2073 206.605 46.9443L207.271 63.9565C207.267 64.6269 206.753 65.1879 206.081 65.2355Z" fill="#263238"/>
<path d="M198.031 37.9199L198.807 46.0504C198.86 46.6067 199.374 47.0109 199.926 46.9253L202.321 46.5734C202.825 46.4974 203.187 46.0504 203.154 45.5464L202.639 37.221C202.601 36.6267 202.044 36.1988 201.464 36.3224L198.807 36.8692C198.317 36.969 197.984 37.4207 198.031 37.9199Z" fill="#263238"/>
<path d="M180.807 108.397L180.418 122.334" stroke="#263238" stroke-width="4" stroke-miterlimit="10" stroke-linecap="round" stroke-linejoin="round"/>
<path d="M179.626 117.786C179.626 117.786 175.809 118.759 174.773 119.307C173.732 119.856 171.106 119.913 171.106 119.913L171.386 114.321L177.72 114.781L179.087 114.879L179.626 117.786Z" fill="white" stroke="#263238" stroke-miterlimit="10" stroke-linecap="round" stroke-linejoin="round"/>
<path d="M178.295 115.448L178.683 118.718C178.683 118.718 179.9 119.178 180.273 119.209C180.646 119.235 181.837 118.324 181.837 118.324L182.179 113.612L178.284 113.953L178.295 115.448Z" fill="white" stroke="#263238" stroke-miterlimit="10" stroke-linecap="round" stroke-linejoin="round"/>
<path d="M177.083 114.988L177.673 117.15L178.543 117.212L178.279 113.948L177.083 114.988Z" fill="white" stroke="#263238" stroke-miterlimit="10" stroke-linecap="round" stroke-linejoin="round"/>
<path d="M153.833 194.363C153.833 194.363 151.477 199.303 151.901 200.333C152.326 201.362 155.076 201.31 155.076 201.31L155.19 194.585C155.19 194.585 154.574 192.796 153.833 194.363Z" fill="white" stroke="#263238" stroke-miterlimit="10" stroke-linecap="round" stroke-linejoin="round"/>
<path d="M160.318 197.948C160.318 197.948 163.306 199.784 164.15 200.219C164.994 200.653 168.558 201.409 168.63 202.164C168.703 202.919 165.171 203.411 163.404 203.654C161.638 203.902 153.869 202.588 153.512 202.314C153.16 202.04 154.486 197.519 154.486 197.519L160.318 197.948Z" fill="white" stroke="#263238" stroke-miterlimit="10" stroke-linecap="round" stroke-linejoin="round"/>
<path d="M172.002 133.326C172.002 133.326 170.448 159.9 170.567 163.402C170.686 166.905 169.392 169.305 169.319 170.298C169.247 171.291 160.882 191.885 160.882 191.885L159.287 196.634L156.029 191.658L159.473 168.338L156.107 133.921L164.803 132.804L172.002 133.326Z" fill="#61CAE1" stroke="#263238" stroke-miterlimit="10" stroke-linecap="round" stroke-linejoin="round"/>
<path d="M144.728 134.092C144.728 134.092 146.639 145.581 148.659 150.465C150.679 155.348 153.217 168.503 153.217 168.503C153.217 168.503 151.611 175.119 152.668 177.814C153.719 180.51 153.776 195.227 153.776 195.227C153.776 195.227 153.497 197.327 153.585 197.834C153.673 198.341 153.735 199.215 153.735 199.215C153.735 199.215 156.262 198.776 157.143 198.714C158.023 198.651 161.058 198.124 161.058 198.124C161.058 198.124 161.193 196.262 161.4 195.154C161.607 194.047 160.861 192.247 160.887 191.875C160.913 191.502 162.125 181.736 162.125 181.736C162.125 181.736 163.959 168.524 164.14 166.046C164.321 163.568 161.493 137.17 161.493 137.17C161.493 137.17 153.631 131.987 150.658 131.645C147.675 131.314 144.728 134.092 144.728 134.092Z" fill="#4ABED8" stroke="#263238" stroke-miterlimit="10" stroke-linecap="round" stroke-linejoin="round"/>
<path d="M153.667 86.8363C153.667 86.8363 142.708 92.9767 142.667 93.5664C142.625 94.1561 146.432 118.206 146.432 118.206C146.432 118.206 143.485 131.464 143.376 132.938C143.268 134.418 143.444 136.115 143.444 136.115L149.705 133.202C149.705 133.202 160.758 138.065 162.224 138.37C163.689 138.675 165.155 138.98 165.155 138.98L166.636 136.316L166.786 139.694C166.786 139.694 169.2 137.889 170.293 136.482C171.386 135.075 172.701 133.388 172.701 133.388L171.619 118.252C171.619 118.252 172.282 94.1302 172.359 93.0491C172.437 91.9627 172.541 90.5867 171.505 89.8159C170.469 89.0451 162.861 87.307 162.861 87.307L155.33 85.8689L153.667 86.8363Z" fill="white" stroke="#263238" stroke-miterlimit="10" stroke-linecap="round" stroke-linejoin="round"/>
<path d="M161.488 88.8796L167.651 90.7988C168.035 90.9177 168.444 90.8712 168.791 90.6694L170.692 89.5521C170.733 88.9727 170.381 88.4399 169.827 88.2588C168.247 87.7363 165.16 86.7535 164.43 86.769C163.436 86.7793 161.343 87.1673 161.488 88.8796Z" fill="#828282" stroke="#263238" stroke-miterlimit="10" stroke-linecap="round" stroke-linejoin="round"/>
<path d="M154.973 78.4093L155.879 85.0152L162.125 90.5193L163.498 85.2687L156.946 77.1677L154.973 78.4093Z" fill="white" stroke="#263238" stroke-miterlimit="10" stroke-linecap="round" stroke-linejoin="round"/>
<path d="M159.603 84.0325L162.431 87.9433L163.192 85.8792L159.603 84.0325Z" fill="#E5E5E5"/>
<path d="M168.786 71.1929L168.568 75.533L167.998 76.5832L168.102 80.6492L167.361 81.2906C167.361 81.2906 166.217 84.7721 165.999 85.0566C165.782 85.3359 164.621 86.2464 164.212 86.4119C163.803 86.5826 159.805 84.3117 159.178 83.3754C158.551 82.439 157.842 81.2958 157.842 81.2958L157.966 78.2334L157.681 72.5689L168.786 71.1929Z" fill="white" stroke="#263238" stroke-miterlimit="10" stroke-linecap="round" stroke-linejoin="round"/>
<path d="M165.388 76.8833V78.0214C165.388 78.0214 164.549 78.4766 163.715 77.8713" stroke="#263238" stroke-miterlimit="10" stroke-linecap="round" stroke-linejoin="round"/>
<path d="M165.916 82.8063C165.916 82.8063 165.538 82.8839 164.699 82.3511" stroke="#263238" stroke-miterlimit="10" stroke-linecap="round" stroke-linejoin="round"/>
<path d="M162.866 73.6087L168.516 73.9346L168.786 71.1929L162.322 72.9569L162.866 73.6087Z" fill="#263238"/>
<path d="M166.326 76.3608L163.177 76.0349" stroke="#263238" stroke-miterlimit="10" stroke-linecap="round" stroke-linejoin="round"/>
<path d="M167.356 81.2905L165.264 81.4354" stroke="#263238" stroke-miterlimit="10" stroke-linecap="round" stroke-linejoin="round"/>
<path d="M168.786 71.1929C168.786 71.1929 169.102 65.4715 167.708 64.1835C166.315 62.8954 159.805 62.4246 159.085 62.766C158.365 63.1126 157.635 63.6506 157.635 63.6506C157.635 63.6506 154.734 65.3215 153.574 66.3303C152.409 67.3338 151.756 68.177 151.627 69.9514C151.497 71.7257 152.051 75.0313 152.051 75.0313L168.786 71.1929Z" fill="#2EB39D" stroke="#263238" stroke-miterlimit="10" stroke-linecap="round" stroke-linejoin="round"/>
<path d="M157.676 72.5636C157.676 72.5636 168.454 70.272 170.541 70.2254C172.629 70.1789 174.825 69.9409 174.825 69.9409C174.825 69.9409 169.454 71.5342 166.709 72.424C163.969 73.3137 159.054 74.0483 159.054 74.0483L157.676 72.5636Z" fill="#23A08C" stroke="#263238" stroke-miterlimit="10" stroke-linecap="round" stroke-linejoin="round"/>
<path d="M156.78 71.9069C156.78 71.9069 156.739 69.0306 156.878 67.158C157.013 65.2854 157.629 63.6455 157.629 63.6455C157.629 63.6455 154.817 64.1369 154.315 65.5854C153.812 67.0338 155.061 73.0656 155.061 73.0656L156.956 72.9053L156.811 72.2017L156.78 71.9069Z" fill="#263238" stroke="#263238" stroke-miterlimit="10" stroke-linecap="round" stroke-linejoin="round"/>
<path d="M160.488 76.1848C160.328 78.3885 158.412 80.0439 156.205 79.8836C153.999 79.7232 152.341 77.8092 152.502 75.6055C152.663 73.4017 154.579 71.7464 156.785 71.9067C158.986 72.0671 160.649 73.9811 160.488 76.1848Z" fill="#263238" stroke="#263238" stroke-miterlimit="10" stroke-linecap="round" stroke-linejoin="round"/>
<path d="M153.838 83.0857L160.369 86.0343L162.369 91.2281L152.585 86.6603L153.838 83.0857Z" fill="white" stroke="#263238" stroke-miterlimit="10" stroke-linecap="round" stroke-linejoin="round"/>
<path d="M171.106 111.31L170.718 125.251" stroke="#263238" stroke-width="4" stroke-miterlimit="10" stroke-linecap="round" stroke-linejoin="round"/>
<path d="M146.069 91.7351C146.069 91.7351 140.388 93.5043 140.3 94.6837C140.212 95.8684 144.215 121.314 145.034 122.365C145.852 123.415 150.783 123.772 150.783 123.772L153.512 116.245L151.989 115.345L151.124 95.8684" fill="white"/>
<path d="M146.069 91.7351C146.069 91.7351 140.388 93.5043 140.3 94.6837C140.212 95.8684 144.215 121.314 145.034 122.365C145.852 123.415 150.783 123.772 150.783 123.772L153.512 116.245L151.989 115.345L151.124 95.8684" stroke="#263238" stroke-miterlimit="10" stroke-linecap="round" stroke-linejoin="round"/>
<path d="M154.978 116.545L166.393 117.766L168.656 115.257L173.675 115.821C173.675 115.821 174.239 116.255 174.182 117.047C174.125 117.833 173.488 118.381 173.488 118.381C173.488 118.381 172.779 121.304 172.349 121.765C171.919 122.23 165.963 122.292 165.963 122.292L151.974 123.756C151.974 123.756 152.916 120.357 153.486 119.307C154.061 118.262 154.978 116.545 154.978 116.545Z" fill="white" stroke="#263238" stroke-miterlimit="10" stroke-linecap="round" stroke-linejoin="round"/>
<path d="M151.943 114.641C151.943 114.641 149.767 117.259 149.571 118.63C149.374 120.001 149.022 124.832 149.514 124.863C150.006 124.899 151.761 125.324 152.171 125.153C152.58 124.982 153.253 121.17 153.253 121.17C153.253 121.17 156.06 116.617 155.791 116.302C155.516 115.992 151.943 114.641 151.943 114.641Z" fill="white" stroke="#263238" stroke-miterlimit="10" stroke-linecap="round" stroke-linejoin="round"/>
<path d="M143.48 91.0986L152.052 93.7679C152.58 93.9335 153.155 93.8662 153.636 93.5869L156.278 92.0298C156.335 91.2228 155.843 90.483 155.076 90.2296C152.88 89.5053 148.587 88.1396 147.571 88.1552C146.189 88.181 143.278 88.719 143.48 91.0986Z" fill="#828282" stroke="#263238" stroke-miterlimit="10" stroke-linecap="round" stroke-linejoin="round"/>
<path d="M153.486 92.5732L164.352 95.9822L176.492 92.1231L170.008 90.2815" stroke="#263238" stroke-width="2" stroke-miterlimit="10" stroke-linecap="round" stroke-linejoin="round"/>
<path d="M174.69 111.817L170.806 110.291L167.859 111.325L164.223 109.815L164.668 100.245L170.407 98.5376L178.859 100.772L178.611 111.108L174.69 111.817Z" fill="#828282" stroke="#263238" stroke-miterlimit="10" stroke-linecap="round" stroke-linejoin="round"/>
<path d="M164.668 100.245L168.206 101.372L170.992 100.824L175.249 102.381L179.351 100.933L170.407 98.5376L164.668 100.245Z" stroke="#263238" stroke-miterlimit="10" stroke-linecap="round" stroke-linejoin="round"/>
<path d="M167.859 111.325L168.206 101.373L170.992 100.824L170.806 110.291L167.859 111.325Z" fill="#263238" stroke="#263238" stroke-miterlimit="10" stroke-linecap="round" stroke-linejoin="round"/>
<path d="M176.441 100.731L182.5 98.791L181.786 110.337L176.425 112.789L176.441 100.731Z" fill="#828282" stroke="#263238" stroke-miterlimit="10" stroke-linecap="round" stroke-linejoin="round"/>
<path d="M176.648 98.6151L184.065 96.1631L182.501 98.791L176.865 100.752L176.648 98.6151Z" fill="#263238" stroke="#263238" stroke-miterlimit="10" stroke-linecap="round" stroke-linejoin="round"/>
<path d="M184.065 96.1631L183.738 112.722L181.786 110.337L182.501 98.791L184.065 96.1631Z" fill="#263238" stroke="#263238" stroke-miterlimit="10" stroke-linecap="round" stroke-linejoin="round"/>
<path d="M174.68 113.689L181.786 110.337L183.738 112.722L176.239 116.297L174.68 113.689Z" fill="#263238" stroke="#263238" stroke-miterlimit="10" stroke-linecap="round" stroke-linejoin="round"/>
<path d="M174.188 101.558L173.934 113.632L176.239 116.296L176.648 98.615L174.188 101.558Z" fill="#263238" stroke="#263238" stroke-miterlimit="10" stroke-linecap="round" stroke-linejoin="round"/>
<path d="M180.964 106.159C181.168 103.349 180.443 101.007 179.345 100.928C178.246 100.848 177.191 103.061 176.987 105.871C176.783 108.681 177.508 111.023 178.606 111.102C179.705 111.182 180.76 108.969 180.964 106.159Z" fill="#263238" stroke="#263238" stroke-miterlimit="10" stroke-linecap="round" stroke-linejoin="round"/>
<path d="M171.639 93.6387L171.696 99.7532" stroke="#263238" stroke-width="2" stroke-miterlimit="10" stroke-linecap="round" stroke-linejoin="round"/>
<path d="M174.302 93.0851L174.353 85.4807" stroke="#263238" stroke-width="2" stroke-miterlimit="10" stroke-linecap="round" stroke-linejoin="round"/>
<path d="M175.602 78.5904L175.42 89.6762L183.189 87.6173L183.723 76.8057L175.602 78.5904Z" fill="#828282" stroke="#263238" stroke-miterlimit="10" stroke-linecap="round" stroke-linejoin="round"/>
<path d="M175.602 78.5903L174.421 79.3766L171.52 79.7905L171.515 85.0256L174.302 86.2257L175.42 89.6762L175.602 78.5903Z" fill="#263238" stroke="#263238" stroke-miterlimit="10" stroke-linecap="round" stroke-linejoin="round"/>
<path d="M218.399 89.1833L218.212 93.2286L215.98 93.1251L212.841 92.9855L210.127 92.8613L206.994 92.7216L204.28 92.5975L201.141 92.4578L199.707 92.3906L199.893 88.3401L203.13 88.4901L206.398 88.635L208.978 88.7539L212.246 88.9039L214.825 89.0229L218.093 89.1678L218.399 89.1833Z" fill="#263238" stroke="#263238" stroke-miterlimit="10" stroke-linecap="round" stroke-linejoin="round"/>
<path d="M204.28 92.5974L206.398 88.6348L203.13 88.49L201.141 92.4577" fill="white"/>
<path d="M204.28 92.5974L206.398 88.6348L203.13 88.49L201.141 92.4577" stroke="#263238" stroke-miterlimit="10" stroke-linecap="round" stroke-linejoin="round"/>
<path d="M210.127 92.8613L212.246 88.9039L208.978 88.7539L206.994 92.7216" fill="white"/>
<path d="M210.127 92.8613L212.246 88.9039L208.978 88.7539L206.994 92.7216" stroke="#263238" stroke-miterlimit="10" stroke-linecap="round" stroke-linejoin="round"/>
<path d="M215.98 93.125L218.093 89.1676L214.825 89.0227L212.841 92.9853" fill="white"/>
<path d="M215.98 93.125L218.093 89.1676L214.825 89.0227L212.841 92.9853" stroke="#263238" stroke-miterlimit="10" stroke-linecap="round" stroke-linejoin="round"/>
<path d="M218.337 93.4308L199.833 94.3486L200.349 104.729L218.853 103.811L218.337 93.4308Z" fill="#263238" stroke="#263238" stroke-miterlimit="10" stroke-linecap="round" stroke-linejoin="round"/>
<path d="M218.497 96.8702L215.939 96.9995L213.385 97.1288L210.863 97.253L208.33 97.3823L205.798 97.5116L203.28 97.6358L199.997 97.8013L199.826 94.3509L201.633 94.263L204.389 94.1233L206.694 94.0095L209.465 93.875L211.743 93.7612L214.53 93.6215L218.326 93.4353L218.497 96.8702Z" fill="#263238" stroke="#263238" stroke-miterlimit="10" stroke-linecap="round" stroke-linejoin="round"/>
<path d="M205.798 97.5119L204.389 94.1235L201.633 94.2632L203.28 97.636" fill="white"/>
<path d="M205.798 97.5119L204.389 94.1235L201.633 94.2632L203.28 97.636" stroke="#263238" stroke-miterlimit="10" stroke-linecap="round" stroke-linejoin="round"/>
<path d="M210.863 97.253L208.33 97.3823L206.694 94.0095L209.465 93.875L210.863 97.253Z" fill="white" stroke="#263238" stroke-miterlimit="10" stroke-linecap="round" stroke-linejoin="round"/>
<path d="M215.939 96.9996L213.385 97.1289L211.743 93.7613L214.53 93.6216L215.939 96.9996Z" fill="white" stroke="#263238" stroke-miterlimit="10" stroke-linecap="round" stroke-linejoin="round"/>
<path d="M220.336 87.9159C220.336 87.9159 217.27 86.633 216.845 86.8193C216.42 87.0107 211.065 88.6505 211.065 88.6505L214.359 88.7902C214.359 88.7902 212.334 89.8403 211.909 89.9283C211.49 90.011 212.582 91.206 213.318 91.0353C214.053 90.8594 215.659 89.9955 215.659 89.9955C215.659 89.9955 217.114 90.0628 217.948 90.099C218.782 90.1352 219.74 89.6593 219.74 89.6593L233.232 104.527L235.641 106.508L241.151 102.178L228.167 92.1216L220.336 87.9159Z" fill="white" stroke="#263238" stroke-miterlimit="10" stroke-linecap="round" stroke-linejoin="round"/>
<path d="M222.392 120.604C222.392 120.604 215.037 106.813 214.152 105.711C213.261 104.609 212.386 103.719 211.65 103.647C210.92 103.58 208.693 102.855 207.755 102.902C206.818 102.949 206.321 103.388 206.859 103.781C207.398 104.169 208.765 104.418 208.765 104.418L203.778 104.666C203.778 104.666 205.026 106.684 205.782 107.273C206.538 107.858 211.619 107.294 211.619 107.294C211.619 107.294 216.234 122.575 216.648 124.634C217.062 126.693 219.139 128.674 219.455 128.659C219.766 128.643 224.106 125.824 224.106 125.824L222.392 120.604Z" fill="white" stroke="#263238" stroke-miterlimit="10" stroke-linecap="round" stroke-linejoin="round"/>
<path d="M243.275 204.956C243.275 204.956 243.648 208.142 243.591 208.432C243.534 208.722 242.28 209.281 241.923 209.296C241.565 209.312 237.407 208.81 237.194 208.82C236.982 208.83 236.759 204.356 236.759 204.356C236.759 204.356 240.032 204.195 240.317 204.18C240.597 204.164 243.275 204.956 243.275 204.956Z" fill="white" stroke="#263238" stroke-miterlimit="10" stroke-linecap="round" stroke-linejoin="round"/>
<path d="M232.699 204.485C232.699 204.485 231.171 205.271 229.71 206.058C228.25 206.844 225.738 207.967 225.401 208.339C225.064 208.711 225.815 209.529 226.111 209.658C226.401 209.787 230.787 210.496 233.631 210.351C236.474 210.212 238.681 210.103 238.857 209.306C239.033 208.51 238.888 207.025 238.888 207.025C238.888 207.025 234.356 206.254 232.699 204.485Z" fill="white" stroke="#263238" stroke-miterlimit="10" stroke-linecap="round" stroke-linejoin="round"/>
<path d="M228.622 136.801C228.622 136.801 228.591 136.868 228.529 137.003C228.017 138.151 225.525 143.997 224.93 150.091C224.267 156.888 225.385 162.108 225.385 162.108L229.109 179.66C229.109 179.66 228.824 185.371 229.741 188.035C230.658 190.694 233.134 203.181 233.134 203.181C233.134 203.181 232.424 203.29 232.445 203.642C232.46 203.999 232.212 204.651 232.212 204.651C232.212 204.651 232.481 204.351 233.688 205.644C234.895 206.937 237.375 208.096 237.873 208.07C238.37 208.044 238.94 208.018 238.94 208.018L238.924 204.816C238.924 204.816 240.83 205.861 241.969 205.804C243.109 205.747 243.798 205.287 243.798 205.287C243.798 205.287 243.694 201.8 243.741 201.298C243.787 200.797 244.673 188.5 244.015 185.257C243.352 182.013 242.104 175.521 242.104 175.521C242.104 175.521 248.138 157.773 248.775 154.819C249.412 151.865 249.712 144.943 249.226 142.403C248.744 139.864 247.687 136.936 247.687 136.936L246.367 135.135C246.367 135.135 240.851 137.546 236.309 136.558C231.766 135.57 229.886 135.094 229.886 135.094L228.622 136.801Z" fill="#008F84" stroke="#263238" stroke-miterlimit="10" stroke-linecap="round" stroke-linejoin="round"/>
<path d="M246.657 151.011L239.142 154.803C239.142 154.803 237.334 171.491 237.199 171.709C237.07 171.931 237.484 177.394 237.526 178.247C237.567 179.101 237.339 180.249 237.339 180.249C237.339 180.249 238.256 182.908 238.504 186.462C238.753 190.011 238.722 197.993 238.722 197.993L239.178 204.309" stroke="#263238" stroke-miterlimit="10" stroke-linecap="round" stroke-linejoin="round"/>
<path d="M236.262 106.177C236.262 106.177 229.746 109.312 229.674 109.938C229.601 110.563 223.148 119.109 223.148 119.109C223.148 119.109 223.314 122.43 223.909 123.962C224.505 125.493 224.862 126.414 224.862 126.414L229.71 123.362L230.503 130.919L228.519 137.158C228.519 137.158 231.062 140.153 234.61 140.184C238.152 140.215 243.212 139.238 244.637 138.544C246.061 137.851 247.682 136.936 247.682 136.936L245.869 129.843C245.869 129.843 251.598 117.175 251.815 113.207C252.033 109.239 250.816 103.575 249.956 103.099C249.096 102.623 248.78 102.535 248.78 102.535L236.262 106.177Z" fill="#FBDE5C" stroke="#263238" stroke-miterlimit="10" stroke-linecap="round" stroke-linejoin="round"/>
<path d="M224.531 117.583C224.531 117.583 223.852 120.739 224.666 122.363C225.474 123.987 226.427 126.336 226.427 126.336L223.682 127.722C223.682 127.722 221.936 126.144 221.827 123.961C221.719 121.778 221.719 119.699 221.719 119.699C221.719 119.699 223.671 117.004 224.531 117.583Z" fill="#FBDE5C" stroke="#263238" stroke-miterlimit="10" stroke-linecap="round" stroke-linejoin="round"/>
<path d="M229.715 123.362L234.703 120.93" stroke="#263238" stroke-miterlimit="10" stroke-linecap="round" stroke-linejoin="round"/>
<path d="M232.051 96.0635C232.051 96.0635 232.952 95.991 233.103 95.4634" stroke="#263238" stroke-miterlimit="10" stroke-linecap="round" stroke-linejoin="round"/>
<path d="M232.279 89.773C232.279 89.773 232.73 89.1005 233.33 90.3731" stroke="#263238" stroke-miterlimit="10" stroke-linecap="round" stroke-linejoin="round"/>
<path d="M232.688 92.618C232.874 92.618 233.025 92.1988 233.025 91.6817C233.025 91.1646 232.874 90.7454 232.688 90.7454C232.502 90.7454 232.352 91.1646 232.352 91.6817C232.352 92.1988 232.502 92.618 232.688 92.618Z" fill="#263238"/>
<path d="M232.241 86.6897C232.241 86.6897 231.596 87.9821 231.523 88.9884C231.45 89.9947 231.809 90.4966 231.237 91.1415C230.661 91.7864 228.577 91.6434 229.009 92.5769C229.441 93.5104 230.159 94.1553 230.159 94.1553C230.159 94.1553 230.591 96.4541 230.805 97.9597C231.021 99.4679 230.877 99.6109 231.666 99.7539C232.457 99.8969 233.821 99.6811 233.821 99.6811C233.821 99.6811 234.898 101.26 235.33 103.342C235.762 105.425 235.403 106.934 235.403 106.934L239.356 104.78C239.356 104.78 240.865 105.282 241.656 102.196C242.447 99.109 240.147 89.9895 238.71 88.1225C237.269 86.2606 232.241 86.6897 232.241 86.6897Z" fill="white" stroke="#263238" stroke-miterlimit="10" stroke-linecap="round" stroke-linejoin="round"/>
<path d="M238.229 90.7504C238.229 90.7504 237.716 92.7954 238.009 93.2054C238.301 93.6155 239.478 92.1829 239.478 92.1829C239.478 92.1829 238.743 89.8637 238.229 90.7504Z" fill="#263238" stroke="#263238" stroke-miterlimit="10" stroke-linecap="round" stroke-linejoin="round"/>
<path d="M240.418 96.4016C239.918 97.4137 238.824 96.7372 238.824 96.7372L235.969 98.5829L238.239 97.6871L241.427 100.301C241.427 100.301 241.374 94.472 240.418 96.4016Z" fill="#E0E2E3"/>
<path d="M230.9 95.4988C230.9 95.4988 232.418 95.9048 232.85 95.2297" stroke="#263238" stroke-miterlimit="10" stroke-linecap="round" stroke-linejoin="round"/>
<path d="M232.14 90.8367C232.017 91.2642 232.06 91.656 232.237 91.712C232.414 91.768 232.656 91.4677 232.779 91.0402C232.903 90.6128 232.859 90.2209 232.682 90.1649C232.506 90.1089 232.264 90.4092 232.14 90.8367Z" fill="#263238"/>
<path d="M233.629 89.7681C233.629 89.7681 232.99 88.4786 232.07 89.215" stroke="#263238" stroke-miterlimit="10" stroke-linecap="round" stroke-linejoin="round"/>
<path d="M241.187 102.499C241.187 102.499 234.941 104.682 234.543 105.116C234.149 105.551 234.237 107.315 234.237 107.315L243.068 104.692L242.223 102.338L241.187 102.499Z" fill="white" stroke="#263238" stroke-miterlimit="10" stroke-linecap="round" stroke-linejoin="round"/>
<path d="M231.291 84.6601C231.291 84.6601 231.219 85.2368 232.222 86.6773C233.225 88.1179 237.16 89.9185 238.233 90.7849C239.306 91.6487 240.667 99.0001 240.452 100.944C240.237 102.889 240.021 103.611 238.948 103.611C237.875 103.611 237.16 102.748 237.16 102.748C237.16 102.748 237.517 105.989 239.163 106.639C240.809 107.286 242.886 105.991 244.674 106.135C246.463 106.278 248.181 107.865 249.039 108.512C249.897 109.159 250.2 110.25 250.98 109.86C251.955 109.665 251.955 109.079 251.955 108.104C251.955 107.129 251.838 105.881 250.98 104.008C250.122 102.134 249.112 104.624 249.9 100.156C250.688 95.6885 250.903 93.0945 248.254 88.1962C245.605 83.2952 242.385 82.7916 242.385 82.7916C242.385 82.7916 238.591 82.2827 231.291 84.6601Z" fill="#263238" stroke="#263238" stroke-miterlimit="10" stroke-linecap="round" stroke-linejoin="round"/>
<path d="M107.037 69.0282C107.037 69.0282 103.806 71.1559 103.39 72.5692C102.974 73.9826 102.036 76.6929 102.726 78.0606C103.42 79.4284 104.536 82.9289 104.947 83.5065C105.353 84.084 106.743 86.8246 106.743 86.8246L106.783 89.8135L117.023 90.8722C117.023 90.8722 118.312 89.7324 118.596 88.6432C118.885 87.5541 119.59 85.0515 119.59 85.0515C119.59 85.0515 121.076 84.2562 121.111 83.704C121.147 83.1518 120.173 80.8823 120.173 80.8823L121.304 78.628L121.385 77.3058C121.385 77.3058 123.931 77.3464 123.409 74.9958C122.887 72.6402 119.605 70.1174 115.821 68.5621C112.033 67.0069 108.396 68.5571 107.037 69.0282Z" fill="white" stroke="#263238" stroke-miterlimit="10" stroke-linecap="round" stroke-linejoin="round"/>
<path d="M116.192 89.555L115.512 87.5186L117.962 89.6918C117.957 89.6918 117.414 90.3706 116.192 89.555Z" fill="#E5E5E6"/>
<path d="M115.816 68.5621C112.033 67.0069 108.396 68.5571 107.037 69.0282C107.037 69.0282 103.806 71.1559 103.39 72.5693C102.974 73.9826 102.036 76.6929 102.726 78.0606C103.42 79.4284 104.536 82.9289 104.947 83.5065C105.353 84.084 106.743 86.8246 106.743 86.8246V86.855C107.924 86.5308 110.648 85.8165 111.678 85.7962C113.006 85.7658 115.4 84.6919 115.4 84.6919C115.4 84.6919 114.422 84.4132 113.955 82.9441C113.488 81.4801 114.077 79.0789 114.538 78.7749C115 78.471 115.989 80.4112 115.989 80.4112L117.414 78.8357C117.414 78.8357 118.662 78.3595 119.027 77.8276C119.392 77.2957 117.977 75.0009 117.977 75.0009L121.38 77.3058C121.38 77.3058 123.926 77.3464 123.404 74.9958C122.882 72.6351 119.6 70.1174 115.816 68.5621Z" fill="#263238" stroke="#263238" stroke-miterlimit="10" stroke-linecap="round" stroke-linejoin="round"/>
<path d="M104.374 92.9898C104.374 92.9898 108.31 92.0121 110.77 91.6068C113.229 91.2015 118.555 91.0799 118.555 91.0799C118.555 91.0799 116.11 89.3829 114.046 88.7041C111.982 88.0252 107.412 88.5267 106.255 89.3424C105.099 90.1529 104.374 92.9898 104.374 92.9898Z" fill="#FFB979" stroke="#263238" stroke-miterlimit="10" stroke-linecap="round" stroke-linejoin="round"/>
<path d="M98.3838 122.499C98.3838 122.499 98.8302 124.297 100.017 124.809C101.204 125.32 103.785 124.814 104.567 122.868C105.348 120.923 103.537 119.707 103.537 119.707L98.0288 121.035L98.3838 122.499Z" fill="white" stroke="#263238" stroke-miterlimit="10" stroke-linecap="round" stroke-linejoin="round"/>
<path d="M96.6038 117.083C96.6038 117.083 95.6757 117.802 95.6402 118.354C95.6047 118.907 96.8067 122.853 97.3596 122.883C97.9124 122.919 100.423 123.512 101.904 122.823C103.385 122.139 104.263 120.421 104.263 120.421L103.659 115.74L96.6038 117.083Z" fill="#FFB979" stroke="#263238" stroke-miterlimit="10" stroke-linecap="round" stroke-linejoin="round"/>
<path d="M99.7738 198.598L99.3123 202.554C99.3123 202.554 100.164 203.157 101.047 203.213C101.929 203.264 105.059 202.793 105.394 202.813C105.723 202.833 107.6 202.944 108.264 202.985C108.929 203.026 109.162 202.818 109.076 202.372C108.99 201.926 106.144 199.54 106.144 199.54L105.581 197.848L100.164 197.63L99.7738 198.598Z" fill="white" stroke="#263238" stroke-miterlimit="10" stroke-linecap="round" stroke-linejoin="round"/>
<path d="M132.427 199.013C132.427 199.013 131.732 203.177 132.25 203.76C132.767 204.343 134.106 204.206 134.877 204.251C135.648 204.297 139.665 203.877 140.436 203.922C141.207 203.968 145.305 203.993 146.345 203.284C147.384 202.57 146.537 201.967 145.34 201.561C144.148 201.156 140.126 199.809 139.376 199.434C138.625 199.059 137.453 198.213 137.453 198.213L132.427 199.013Z" fill="white" stroke="#263238" stroke-miterlimit="10" stroke-linecap="round" stroke-linejoin="round"/>
<path d="M104.065 127.488C104.065 127.488 103.299 136.516 103.882 137.878C104.465 139.241 104.496 147.873 104.425 149.084C104.354 150.295 104.765 169.13 104.765 169.13C104.765 169.13 101.797 183.446 101.422 185.969C101.047 188.491 100.504 195.649 100.504 195.649C100.504 195.649 103.568 196.278 104.12 196.308C104.673 196.343 106.022 195.979 106.022 195.979C106.022 195.979 112.266 176.992 112.814 175.254C113.362 173.517 113.904 168.238 113.935 167.686C113.965 167.134 117.972 146.688 117.972 146.688L120.376 150.928L127.796 172.949L131.879 197.093L136.789 196.506C136.789 196.506 137.276 179.277 137.448 176.409C137.621 173.542 136.956 169.854 136.956 169.854C136.956 169.854 135.638 151.298 134.37 148.456C133.102 145.614 129.866 135.016 129.866 135.016L128.167 128.273C128.167 128.273 123.12 129.297 116.608 128.907C110.095 128.517 104.065 127.488 104.065 127.488Z" fill="#7D83C5" stroke="#263238" stroke-miterlimit="10" stroke-linecap="round" stroke-linejoin="round"/>
<path d="M117.972 146.693L112.489 142.919L116.106 147.402L115.309 159.935L117.972 146.693Z" fill="#263238" stroke="#263238" stroke-miterlimit="10" stroke-linecap="round" stroke-linejoin="round"/>
<path d="M137.387 193.892C137.387 193.892 134.243 194.586 133.238 194.748C132.234 194.91 130.667 195.148 130.667 195.148L131.727 199.636C131.727 199.636 136.388 199.474 138.447 198.38L137.387 193.892Z" fill="#545AA6" stroke="#263238" stroke-miterlimit="10" stroke-linecap="round" stroke-linejoin="round"/>
<path d="M100.042 194.186C100.042 194.186 103.968 195.199 104.744 195.244C105.52 195.29 107.392 195.401 107.392 195.401L106.869 198.578C106.869 198.578 104.506 199.211 102.959 199.115C101.412 199.023 99.3223 198.785 99.3223 198.785L100.042 194.186Z" fill="#545AA6" stroke="#263238" stroke-miterlimit="10" stroke-linecap="round" stroke-linejoin="round"/>
<path d="M138.28 100.229L142.906 96.9664L133.928 93.3291C133.928 93.3291 128.314 96.4193 126.746 98.5419C125.179 100.659 124.931 101.09 124.931 101.09L131.402 107.676C131.402 107.671 136.342 101.11 138.28 100.229Z" fill="white" stroke="#263238" stroke-miterlimit="10" stroke-linecap="round" stroke-linejoin="round"/>
<path d="M131.412 111.212L133.837 105.938C133.837 105.938 133.68 103.051 134.146 102.635C134.613 102.22 135.358 100.938 135.358 100.938C135.358 100.938 135.566 99.2917 136.018 99.2055C136.464 99.1194 136.667 99.4639 136.621 100.239C136.576 101.014 135.952 102.189 135.952 102.189L138.285 100.229C138.285 100.229 138.478 102.564 138.331 103.106C138.189 103.653 136.637 105.437 136.637 105.437C136.637 105.437 134.74 116.718 134.572 117.595C134.41 118.471 131.377 120.943 130.134 121.419C128.887 121.896 127.127 121.683 127.497 117.387L131.412 111.212Z" fill="white" stroke="#263238" stroke-miterlimit="10" stroke-linecap="round" stroke-linejoin="round"/>
<path d="M104.952 92.5794C104.952 92.5794 95.1075 97.853 95.0364 99.0637C94.9654 100.274 96.2892 104.008 96.2892 104.008C96.2892 104.008 96.6798 114.099 96.695 115.649C96.7102 117.2 96.3095 118.39 97.7753 119.808C99.2411 121.227 100.971 120.112 101.884 119.611C102.797 119.109 103.065 118.355 103.065 118.355C103.065 118.355 104.146 122.514 103.953 123.831C103.76 125.148 102.928 127.975 103.106 128.648C103.289 129.322 105.094 130.538 111.733 130.715C118.372 130.893 124.809 130.619 126.949 130.082C129.084 129.545 129.576 128.8 129.622 128.03C129.668 127.26 128.41 120.543 128.41 120.543L127.943 119.079C127.943 119.079 131.778 117.98 132.356 117.574C132.934 117.169 133.426 114.54 133.142 113.75C132.858 112.959 132.462 112.159 132.462 112.159C132.462 112.159 130.342 99.5298 130.276 98.8611C130.21 98.1924 131.027 95.5885 130.444 94.2258C129.86 92.8631 118.444 91.1812 117.475 90.6797C116.506 90.1782 107.904 91.4294 104.952 92.5794Z" fill="#FFBE82" stroke="#263238" stroke-miterlimit="10" stroke-linecap="round" stroke-linejoin="round"/>
<path d="M103.065 118.355L99.4796 106.191" stroke="#263238" stroke-miterlimit="10" stroke-linecap="round" stroke-linejoin="round"/>
<path d="M106.301 127.179L117.683 120.234" stroke="#263238" stroke-miterlimit="10" stroke-linecap="round" stroke-linejoin="round"/>
<path d="M114.442 120.462L108.863 125.123" stroke="#263238" stroke-miterlimit="10" stroke-linecap="round" stroke-linejoin="round"/>
<path d="M117.14 118.208L115.618 119.479" stroke="#263238" stroke-miterlimit="10" stroke-linecap="round" stroke-linejoin="round"/>
<path d="M127.948 119.079L126.503 100.735" stroke="#263238" stroke-miterlimit="10" stroke-linecap="round" stroke-linejoin="round"/>
<path d="M127.609 115.143C127.609 115.143 131.118 114.292 131.448 114.312C131.778 114.332 132.371 111.825 132.371 111.825C132.371 111.825 132.391 111.495 133.036 111.865C133.68 112.235 134.141 113.704 133.72 115.224C133.294 116.749 133.249 117.519 131.879 118.213C130.51 118.907 127.999 119.707 127.999 119.707L127.609 115.143Z" fill="#FFB979" stroke="#263238" stroke-miterlimit="10" stroke-linecap="round" stroke-linejoin="round"/>
<path d="M138.161 19.3619C135.724 18.2171 134.617 19.4 132.189 18.2552C130.198 14.1972 128.705 13.0905 122.733 13.4593C120.411 13.4527 115.567 14.3288 114.77 17.8863C112.78 18.3781 109.196 19.9521 110.789 22.3132C110.955 22.805 110.689 23.4199 108.301 23.4199C106.808 23.4954 103.921 24.3984 104.319 25.931H134.212H159.063C159.063 25.931 157.518 25.1133 156.194 24.4591C154.86 23.805 152.653 24.4591 151.549 24.4591C150.445 24.4591 151.04 23.8268 148.612 22.6821C146.184 21.5373 142.931 22.9873 140.944 22.6602C138.958 22.3331 140.589 20.5067 138.161 19.3619Z" fill="white"/>
<g clip-path="url(#clip0)">
<path d="M243.246 31.9571C241.524 31.1474 240.742 31.9841 239.027 31.1743C237.62 28.3041 236.565 27.5213 232.345 27.7821C230.704 27.7775 227.281 28.3971 226.719 30.9134C225.312 31.2613 222.78 32.3746 223.906 34.0446C224.023 34.3925 223.835 34.8274 222.147 34.8274C221.092 34.8808 219.053 35.5195 219.334 36.6036H240.456H258.016C258.016 36.6036 256.924 36.0252 255.988 35.5625C255.046 35.0998 253.486 35.5625 252.706 35.5625C251.926 35.5625 252.347 35.1153 250.631 34.3055C248.915 33.4958 246.617 34.5214 245.213 34.2901C243.809 34.0587 244.962 32.7669 243.246 31.9571Z" fill="white"/>
</g>
<path d="M74.254 41.0732C75.5104 40.2766 76.0808 41.0996 77.3325 40.3031C78.3586 37.4796 79.1282 36.7095 82.2067 36.9662C83.4038 36.9616 85.9008 37.5712 86.3113 40.0464C87.3374 40.3887 89.1845 41.4838 88.3635 43.1266C88.278 43.4689 88.4149 43.8967 89.6462 43.8967C90.4158 43.9492 91.9038 44.5775 91.6985 45.6439H76.2897H63.4795C63.4795 45.6439 64.276 45.0749 64.9587 44.6198C65.6461 44.1646 66.784 44.6198 67.3529 44.6198C67.9218 44.6198 67.6151 44.1798 68.8668 43.3833C70.1184 42.5868 71.7952 43.5957 72.8193 43.3681C73.8434 43.1405 73.0024 41.8697 74.254 41.0732Z" fill="white"/>
<defs>
<clipPath id="clip0">
<rect width="40.0091" height="9.83858" fill="white" transform="translate(218.694 27.1409)"/>
</clipPath>
</defs>
</svg>
